<svg width="363" height="363" viewBox="0 0 363 363" fill="none" xmlns="http://www.w3.org/2000/svg"><path d="M320.449 181.5c0 76.737-62.21 138.946-138.945 138.946-76.734 0-138.95-62.209-138.95-138.946s62.207-138.946 138.95-138.946c76.744 0 138.945 62.209 138.945 138.946z" fill="#171717"/><path d="M1.359 183.665c-.584-49.181 18.8-98.421 57.64-134.398 38.84-35.976 89.418-51.532 138.415-47.224l1.309-1.214c-3.411-.322-6.84-.562-10.274-.693A181.513 181.513 0 0 0 16.59 105.685a181.496 181.496 0 0 0-16.463 68.88 191.04 191.04 0 0 0-.095 10.314l1.327-1.214z" fill="#fff"/><path d="M337.097 90.49l.97-.906a183.367 183.367 0 0 0-66.809-65.92l-1.01.938a180.441 180.441 0 0 1 66.849 65.887z" fill="#8D00C9"/><path d="M360.277 159.045c6.918 55.673-12.09 113.751-56.285 154.692-72.934 67.541-187.185 63.174-254.733-9.744a179.497 179.497 0 0 1-30.98-45.987l-1.015.937a182.043 182.043 0 0 0 31.08 45.92c32.947 35.546 77.772 56.171 126.216 57.983 48.444 1.812 94.714-15.266 130.279-48.217 35.565-32.95 56.177-77.746 58.016-126.185a183.809 183.809 0 0 0-1.359-30.522l-1.219 1.123zM50.483 109.687a149.212 149.212 0 0 1 20.276-28.475c54.17-59.795 146.102-65.52 207.235-13.757l.802-.906a150.585 150.585 0 0 0-208.92 13.848 151.526 151.526 0 0 0-20.802 29.272l1.409.018z" fill="#fff"/><path d="M32.412 172.889H31.14a153.048 153.048 0 0 0-.054 16.058 149.54 149.54 0 0 0 45.649 100.727l.802-.906c-32.268-31.22-47.507-73.883-45.124-115.879z" fill="#8D00C9"/><path d="M313.931 109.687a140.554 140.554 0 0 0-4.816-8.221l-.878.964a148.782 148.782 0 0 1 4.235 7.248l1.459.009zm17.912 63.202h-1.273a148.927 148.927 0 0 1-38.329 108.903c-45.808 50.559-118.564 62.445-176.906 33.653l-.875.969a150.646 150.646 0 0 0 217.441-142.361c-.009-.385-.036-.775-.058-1.164z" fill="#fff"/><path d="M242.465 331.168a146.636 146.636 0 0 0 6.555-2.912l-.512-1.079a153.896 153.896 0 0 1-6.501 2.891l.458 1.1zM50.763 277.647l-.933.712a162.725 162.725 0 0 0 4.403 5.648l.906-.756a154.276 154.276 0 0 1-4.376-5.604zm-7.977-11.741l-1.015.625c1.242 2.02 2.55 4.041 3.887 6.007l.983-.671a156.942 156.942 0 0 1-3.855-5.961zm-17.291-38.903l-1.146.335c.67 2.288 1.4 4.584 2.17 6.836l1.114-.385a176.461 176.461 0 0 1-2.138-6.786zm44.19 71.835l-.829.87a168.138 168.138 0 0 0 5.337 4.793l.774-.906a162.911 162.911 0 0 1-5.282-4.757zm-33.807-45.367l-1.07.535a166.459 166.459 0 0 0 3.348 6.342l1.042-.58a163.293 163.293 0 0 1-3.32-6.297zm-5.781-13.001l-1.11.453c.87 2.215 1.813 4.44 2.764 6.614l1.092-.485c-.96-2.174-1.885-4.38-2.746-6.582zm198.905 95.649a161.313 161.313 0 0 0 6.795-2.314l-.412-1.119a157.018 157.018 0 0 1-6.737 2.296l.354 1.137zm-28.123 4.983l.154 1.183c2.361-.313 4.748-.675 7.09-1.092l-.208-1.173c-2.324.43-4.694.793-7.036 1.082zm14.021-2.45l.254 1.164c2.323-.517 4.67-1.092 6.967-1.708l-.313-1.15a164.028 164.028 0 0 1-6.908 1.694zM80.476 308.111l-.748.942a165.766 165.766 0 0 0 5.735 4.304l.693-.97a186.26 186.26 0 0 1-5.68-4.276zm11.569 8.294l-.652 1.001c1.998 1.3 4.045 2.573 6.097 3.783l.608-1.024a166.314 166.314 0 0 1-6.053-3.76zm29.577 15.185c-1.495-.58-2.99-1.178-4.462-1.812l-.453 1.096c1.676.716 3.388 1.395 5.101 2.056l-.186-1.34zm-17.318-7.937l-.566 1.051a156.222 156.222 0 0 0 6.41 3.234l.511-1.073a169.52 169.52 0 0 1-6.355-3.212zM59.751 288.66l-.906.792a166.402 166.402 0 0 0 4.888 5.237l.856-.833a184.579 184.579 0 0 1-4.838-5.196zM55.533 79.464l-.906-.757a159.089 159.089 0 0 0-4.425 5.64l.956.716a137.2 137.2 0 0 1 4.375-5.6zM74.65 58.26a152.06 152.06 0 0 0-5.34 4.774l.815.87a158.94 158.94 0 0 1 5.3-4.739l-.775-.906zm-10.469 9.78a157.588 157.588 0 0 0-4.901 5.227l.906.797a159.874 159.874 0 0 1 4.865-5.191l-.87-.834zm20.734-17.853a164.08 164.08 0 0 0-4.72 3.538l.734.942a158 158 0 0 1 4.158-3.135l-.172-1.345zm66.782-27.03l-.213-1.173c-2.111.371-4.24.801-6.342 1.259l.154 1.187c2.12-.467 4.267-.875 6.401-1.273zm35.071 319.2l.15 1.187c2.324-.104 4.675-.258 6.99-.453l-.105-1.187a181.15 181.15 0 0 1-7.035.453zM46.007 90.177a143.596 143.596 0 0 0-3.914 6.011l1.015.63a156.33 156.33 0 0 1 3.887-5.966l-.988-.675zm-7.561 12.199a156.895 156.895 0 0 0-3.375 6.342l1.065.539a163.234 163.234 0 0 1 3.347-6.288l-1.037-.593zm-15.873 39.913c-.58 2.31-1.114 4.67-1.59 7.012l1.169.236a164.419 164.419 0 0 1 1.576-6.958l-1.155-.29zm9.409-27.112a160.105 160.105 0 0 0-2.8 6.614l1.106.453a163.393 163.393 0 0 1 2.781-6.559l-1.087-.508zm-5.305 13.346a154.304 154.304 0 0 0-2.206 6.835l1.142.34a166.979 166.979 0 0 1 2.188-6.795l-1.124-.38zm308.586 99.454a163.921 163.921 0 0 0 1.902-6.931l-1.155-.29a158.419 158.419 0 0 1-1.894 6.877l1.147.344zm-8.254-111.69l1.092-.48a159.565 159.565 0 0 0-3.054-6.491l-1.064.534a180.947 180.947 0 0 1 3.026 6.437zm-22.252-36.239l.906-.752a153.954 153.954 0 0 0-4.643-5.436l-.906.793a135.054 135.054 0 0 1 4.643 5.395zm-49.323 245.009c2.098-1.1 4.204-2.265 6.252-3.47l-.603-1.032a152.888 152.888 0 0 1-6.201 3.447l.552 1.055zM313.238 91.45l.987-.67a158.83 158.83 0 0 0-4.14-5.835l-.96.711a162.76 162.76 0 0 1 4.113 5.794zM180.372 20.652v-1.174c-2.374 0-4.788.046-7.166.145l.049 1.192c2.361-.118 4.775-.168 7.117-.163zm-21.644 1.418l.348-.05a171.47 171.47 0 0 1 7.076-.766l-.104-1.187c-2.36.204-4.756.453-7.13.77l-.345.046.155 1.187zm35.859-.78l.109-1.186c-2.369-.218-4.779-.38-7.153-.49l-.054 1.224c2.36.095 4.747.258 7.098.453zm41.577 9.513l.416-1.114a160.572 160.572 0 0 0-6.795-2.37l-.367 1.138c2.256.716 4.521 1.508 6.746 2.346zM222.601 26.4l.313-1.15a159.886 159.886 0 0 0-6.968-1.758l-.262 1.164c2.31.526 4.638 1.115 6.917 1.744zm-13.912-3.175l.213-1.173a158.42 158.42 0 0 0-7.08-1.124l-.163 1.182c2.342.318 4.702.694 7.03 1.115zm111.982 80.324l1.038-.58a163.986 163.986 0 0 0-3.602-6.174l-1.005.625a172.136 172.136 0 0 1 3.569 6.129zm-20.285 186.478a156.413 156.413 0 0 0 4.675-5.435l-.906-.761a184.876 184.876 0 0 1-4.639 5.395l.87.801zm9.105-11.071a162.55 162.55 0 0 0 4.182-5.825l-.983-.675c-1.359 1.952-2.718 3.9-4.15 5.785l.951.715zm8.105-11.832a162.72 162.72 0 0 0 3.655-6.174l-1.037-.584a173.866 173.866 0 0 1-3.624 6.129l1.006.629zm-49.813 50.713a166.53 166.53 0 0 0 5.926-4.014l-.689-.974a164.403 164.403 0 0 1-5.889 3.987l.652 1.001zm56.847-63.215a165.316 165.316 0 0 0 3.099-6.473l-1.087-.494a161.048 161.048 0 0 1-3.076 6.428l1.064.539zm-45.182 54.925a159.827 159.827 0 0 0 5.549-4.53l-.77-.906a169.328 169.328 0 0 1-5.513 4.494l.734.942zm10.899-9.295a183.099 183.099 0 0 0 5.128-4.983l-.851-.834a160.001 160.001 0 0 1-5.092 4.961l.815.856zm48.599-143.064l1.177-.181c-.362-2.36-.779-4.739-1.236-7.062l-1.174.235c.458 2.279.87 4.639 1.233 7.008zm-8.413 84.351c.906-2.21 1.731-4.475 2.514-6.731l-1.127-.39a160.258 160.258 0 0 1-2.492 6.678l1.105.443zm1.658-111.984l1.133-.38c-.77-2.265-1.599-4.53-2.465-6.736l-1.109.453a131.81 131.81 0 0 1 2.441 6.663zm3.987 13.649l1.159-.281a159.964 159.964 0 0 0-1.852-6.926l-1.169.353a129.732 129.732 0 0 1 1.862 6.854zm5.495 28.027c-.15-2.365-.358-4.766-.621-7.144l-1.182.131c.258 2.356.453 4.743.616 7.09l1.187-.077zm-2.913 42.807c.48-2.333.906-4.706 1.282-7.057l-1.178-.186a164.745 164.745 0 0 1-1.269 7.003l1.165.24zm2.242-14.16c.268-2.365.485-4.77.644-7.144l-1.192-.081a152.54 152.54 0 0 1-.639 7.089l1.187.136zm.974-14.306c.054-2.383.054-4.792 0-7.171l-1.196.028c.05 2.355.046 4.751 0 7.116l1.196.027z" fill="#fff"/><path d="M246.012 127.336c.806-3.842.978-7.81-.295-11.57-1.458-4.326-6.147-4.412-6.147-4.412h-64.951v15.982h71.393z" fill="#8D00C9"/><path d="M246.569 128.024h-72.616v-17.358h65.64c.068 0 5.2.149 6.795 4.883 1.169 3.461 1.273 7.366.313 11.927l-.132.548zm-71.262-1.359h70.139c.788-4.076.666-7.569-.381-10.658-1.282-3.801-5.336-3.941-5.508-3.946h-64.245l-.005 14.604z" fill="#fff"/><path d="M239.915 111.354h-70.216c-6.224 0-8.235 3.543-8.235 9.404v90.028h1.227v9.431h64.965s4.684-.086 6.148-4.417c.542-1.619.847-3.308.906-5.014h.031V121.71s-.675-9.368 5.174-10.356z" fill="#fff"/><path d="M227.661 220.906h-65.645v-9.432h-1.227v-90.716c0-6.885 2.835-10.092 8.924-10.092h70.215l.118 1.359c-5.173.906-4.625 9.54-4.621 9.626v89.823h-.068a18.139 18.139 0 0 1-.906 4.53c-1.599 4.734-6.736 4.879-6.795 4.884l.005.018zm-64.268-1.382h64.254c.24 0 4.231-.177 5.504-3.941.516-1.56.805-3.186.856-4.829l.032-.743V121.71c0-.295-.426-6.709 2.881-9.667h-67.207c-5.273 0-7.538 2.609-7.538 8.715v89.339h1.227l-.009 9.427z" fill="#fff"/><path d="M195.978 131.218h-26.129v1.98h26.129v-1.98z" fill="#BCBEC0"/><path d="M197.011 130.185h-28.195v4.045h28.195v-4.045zm31.356 1.033h-26.129v1.98h26.129v-1.98z" fill="#BCBEC0"/><path d="M229.4 130.185h-28.194v4.045H229.4v-4.045zm-33.422 8.385h-26.129v1.975h26.129v-1.975z" fill="#BCBEC0"/><path d="M197.011 137.537h-28.195v4.045h28.195v-4.045zm31.356 1.033h-26.129v1.975h26.129v-1.975z" fill="#BCBEC0"/><path d="M229.4 137.537h-28.194v4.045H229.4v-4.045zm-33.422 10.686h-26.129v1.98h26.129v-1.98z" fill="#BCBEC0"/><path d="M197.011 147.19h-28.195v4.046h28.195v-4.046zm31.356 1.033h-26.129v1.98h26.129v-1.98z" fill="#BCBEC0"/><path d="M229.4 147.19h-28.194v4.046H229.4v-4.046zm-33.422 8.385h-26.129v1.98h26.129v-1.98z" fill="#BCBEC0"/><path d="M197.011 154.538h-28.195v4.045h28.195v-4.045zm31.356 1.037h-26.129v1.98h26.129v-1.98z" fill="#BCBEC0"/><path d="M229.4 154.538h-28.194v4.045H229.4v-4.045zm-33.422 12.983h-26.129v1.979h26.129v-1.979z" fill="#BCBEC0"/><path d="M197.011 166.488h-28.195v4.045h28.195v-4.045zm31.356 1.033h-26.129v1.979h26.129v-1.979z" fill="#BCBEC0"/><path d="M229.4 166.488h-28.194v4.045H229.4v-4.045zm-33.422 8.38h-26.129v1.975h26.129v-1.975z" fill="#BCBEC0"/><path d="M197.011 173.835h-28.195v4.046h28.195v-4.046zm31.356 1.033h-26.129v1.975h26.129v-1.975z" fill="#BCBEC0"/><path d="M229.4 173.835h-28.194v4.046H229.4v-4.046zm-33.422 10.686h-26.129v1.98h26.129v-1.98z" fill="#BCBEC0"/><path d="M197.011 183.489h-28.195v4.045h28.195v-4.045zm31.356 1.032h-26.129v1.98h26.129v-1.98z" fill="#BCBEC0"/><path d="M229.4 183.489h-28.194v4.045H229.4v-4.045zm-33.422 8.384h-26.129v1.98h26.129v-1.98z" fill="#BCBEC0"/><path d="M197.011 190.841h-28.195v4.045h28.195v-4.045zm31.356 1.032h-26.129v1.98h26.129v-1.98z" fill="#BCBEC0"/><path d="M229.4 190.841h-28.194v4.045H229.4v-4.045z" fill="#BCBEC0"/><path d="M222.809 209.862V77.652a18.597 18.597 0 0 0-.906-6.26c-1.463-4.327-6.147-4.413-6.147-4.413h-64.965v10.673h-1.232V210.83c0 5.862 2.011 9.404 8.235 9.404h70.216c-5.858-1.019-5.201-10.373-5.201-10.373z" fill="#8D00C9"/><path d="M228.001 220.906h-70.216c-6.088 0-8.924-3.207-8.924-10.093V76.963h1.232V66.291h65.64c.064 0 5.201.15 6.795 4.883.644 1.938.965 3.969.952 6.011v132.677c0 .136-.544 8.792 4.616 9.676l-.095 1.368zM150.247 78.34v132.473c0 6.106 2.265 8.711 7.547 8.711h67.212c-3.307-2.958-2.908-9.377-2.881-9.712V77.643a17.702 17.702 0 0 0-.879-6.03c-1.286-3.8-5.336-3.94-5.513-3.945h-64.254V78.34h-1.232z" fill="#fff"/><path d="M210.895 166.411V77.335s-.657-9.36 5.187-10.356h-70.215c-6.225 0-8.236 3.543-8.236 9.404v90.028h73.264z" fill="#fff"/><path d="M211.588 167.099h-74.632V76.383c0-6.885 2.836-10.092 8.924-10.092h70.202l.118 1.359c-5.173.883-4.625 9.54-4.621 9.626l.009 89.823zm-73.255-1.381h71.86V77.335c0-.295-.421-6.71 2.881-9.667h-67.207c-5.287 0-7.547 2.61-7.547 8.715l.013 89.335z" fill="#fff"/><path d="M210.27 159.997c.811 3.845.979 7.809-.29 11.569-1.463 4.326-6.152 4.412-6.152 4.412h-64.951v-15.981h71.393z" fill="#fff"/><path d="M203.851 176.666h-65.663v-17.358h72.644l.113.548c.961 4.562.856 8.466-.312 11.932-1.599 4.729-6.737 4.878-6.782 4.878zm-64.272-1.358h64.24c.241 0 4.232-.182 5.504-3.946 1.047-3.089 1.174-6.577.386-10.659h-70.143l.013 14.605z" fill="#fff"/><path d="M171.126 93.633h-26.129v1.98h26.129v-1.98z" fill="#BCBEC0"/><path d="M172.159 92.6h-28.195v4.046h28.195V92.6zm31.357 1.033h-26.129v1.98h26.129v-1.98z" fill="#BCBEC0"/><path d="M204.549 92.6h-28.195v4.046h28.195V92.6zm-33.423 8.385h-26.129v1.975h26.129v-1.975z" fill="#BCBEC0"/><path d="M172.159 99.952h-28.195v4.046h28.195v-4.046zm31.357 1.033h-26.129v1.975h26.129v-1.975z" fill="#BCBEC0"/><path d="M204.549 99.952h-28.195v4.046h28.195v-4.046zm-33.423 10.687h-26.129v1.979h26.129v-1.979z" fill="#BCBEC0"/><path d="M172.159 109.606h-28.195v4.045h28.195v-4.045zm31.357 1.033h-26.129v1.979h26.129v-1.979z" fill="#BCBEC0"/><path d="M204.549 109.606h-28.195v4.045h28.195v-4.045zm-33.423 8.384h-26.129v1.98h26.129v-1.98z" fill="#BCBEC0"/><path d="M172.159 116.953h-28.195v4.046h28.195v-4.046zm31.357 1.037h-26.129v1.98h26.129v-1.98z" fill="#BCBEC0"/><path d="M204.549 116.953h-28.195v4.046h28.195v-4.046zm-33.423 12.983h-26.129v1.98h26.129v-1.98z" fill="#BCBEC0"/><path d="M172.159 128.903h-28.195v4.045h28.195v-4.045zm31.357 1.033h-26.129v1.98h26.129v-1.98z" fill="#BCBEC0"/><path d="M204.549 128.903h-28.195v4.045h28.195v-4.045zm-33.423 8.38h-26.129v1.975h26.129v-1.975z" fill="#BCBEC0"/><path d="M172.159 136.251h-28.195v4.045h28.195v-4.045zm31.357 1.032h-26.129v1.975h26.129v-1.975z" fill="#BCBEC0"/><path d="M204.549 136.251h-28.195v4.045h28.195v-4.045zm-33.423 10.686h-26.129v1.979h26.129v-1.979z" fill="#BCBEC0"/><path d="M172.159 145.904h-28.195v4.045h28.195v-4.045zm31.357 1.033h-26.129v1.979h26.129v-1.979z" fill="#BCBEC0"/><path d="M204.549 145.904h-28.195v4.045h28.195v-4.045zm-33.423 8.385h-26.129v1.979h26.129v-1.979z" fill="#BCBEC0"/><path d="M172.159 153.256h-28.195v4.045h28.195v-4.045zm31.357 1.033h-26.129v1.979h26.129v-1.979z" fill="#BCBEC0"/><path d="M204.549 153.256h-28.195v4.045h28.195v-4.045z" fill="#BCBEC0"/><path d="M198.986 165.623v-36.321a17.961 17.961 0 0 0-.906-5.241c-1.463-4.326-6.152-4.413-6.152-4.413h-64.956v9.636h-1.237v37.29c0 5.861 2.012 9.404 8.236 9.404h70.215c-5.857-.997-5.2-10.355-5.2-10.355z" fill="#8D00C9"/><path d="M204.177 176.666h-70.215c-6.089 0-8.924-3.207-8.924-10.092v-37.979h1.236v-9.658h65.64c.068 0 5.205.154 6.795 4.884.511 1.544.816 3.15.906 4.774h.028v37.028c0 .135-.544 8.797 4.616 9.675l-.082 1.368zm-77.753-46.694v36.602c0 6.111 2.265 8.715 7.547 8.715h67.207c-3.307-2.958-2.903-9.381-2.881-9.712v-36.275a17.25 17.25 0 0 0-.865-5.042c-1.287-3.805-5.341-3.941-5.513-3.946h-64.254v9.654l-1.241.004z" fill="#fff"/><path d="M187.09 245.906V129.981s-.657-9.354 5.191-10.351h-70.215c-6.224 0-8.236 3.543-8.236 9.4v116.872l73.26.004z" fill="#fff"/><path d="M187.769 246.595h-74.627V129.03c0-6.886 2.836-10.093 8.924-10.093h70.215l.114 1.359c-5.174.879-4.626 9.536-4.616 9.622l-.01 116.677zm-73.25-1.359h71.873V129.981c0-.29-.425-6.709 2.881-9.662h-67.207c-5.291 0-7.547 2.605-7.547 8.711v116.206z" fill="#fff"/><path d="M147.42 135.159h-26.129v1.98h26.129v-1.98z" fill="#BCBEC0"/><path d="M148.453 134.126h-28.194v4.045h28.194v-4.045zm31.353 1.033h-26.129v1.98h26.129v-1.98z" fill="#BCBEC0"/><path d="M180.838 134.126h-28.194v4.045h28.194v-4.045zm-33.418 8.38h-26.129v1.975h26.129v-1.975z" fill="#BCBEC0"/><path d="M148.453 141.474h-28.194v4.045h28.194v-4.045zm31.353 1.032h-26.129v1.975h26.129v-1.975z" fill="#BCBEC0"/><path d="M180.838 141.474h-28.194v4.045h28.194v-4.045zM147.42 152.16h-26.129v1.979h26.129v-1.979z" fill="#BCBEC0"/><path d="M148.453 151.127h-28.194v4.045h28.194v-4.045zm31.353 1.033h-26.129v1.979h26.129v-1.979z" fill="#BCBEC0"/><path d="M180.838 151.127h-28.194v4.045h28.194v-4.045zm-33.418 8.385h-26.129v1.979h26.129v-1.979z" fill="#BCBEC0"/><path d="M148.453 158.479h-28.194v4.045h28.194v-4.045zm31.353 1.033h-26.129v1.979h26.129v-1.979z" fill="#BCBEC0"/><path d="M180.838 158.479h-28.194v4.045h28.194v-4.045z" fill="#BCBEC0"/><path d="M242.356 173.876a15.308 15.308 0 0 0 26.139 10.827 15.319 15.319 0 0 0 3.319-16.686 15.316 15.316 0 0 0-14.146-9.452 15.334 15.334 0 0 0-15.312 15.311z" fill="#fff"/><path d="M257.686 190.614a16.739 16.739 0 1 1 16.738-16.76 16.759 16.759 0 0 1-16.738 16.76z" fill="#fff"/><path d="M268.852 173.745a11.057 11.057 0 0 1-6.827 10.219 11.06 11.06 0 1 1-4.239-21.281 11.06 11.06 0 0 1 11.066 11.062z" fill="#DDD"/><path d="M257.464 172.39h-5.087v1.296h5.087v-1.296zm0 1.985h-5.087v1.295h5.087v-1.295z" fill="#8D00C9"/><path d="M263 170.424v-.453a2.042 2.042 0 0 0-.453-1.359 1.447 1.447 0 0 0-1.165-.552h-6.342a1.427 1.427 0 0 0-1.15.571 2.03 2.03 0 0 0-.453 1.358v7.824a2.017 2.017 0 0 0 .48 1.35 1.445 1.445 0 0 0 1.11.566h6.355a1.437 1.437 0 0 0 1.151-.576c.311-.383.471-.866.453-1.358v-.408h-1.128v.408c0 .357-.208.629-.485.629h-6.333a.448.448 0 0 1-.38-.231l-.027-.041v-.031a.49.49 0 0 1-.046-.095.253.253 0 0 1 0-.055.332.332 0 0 1 0-.063.728.728 0 0 1 0-.132v-7.8a.56.56 0 0 1 .49-.625h6.342c.276 0 .484.272.484.625v.453l1.097-.005zm1.513 53.571h-69.926v46.545h69.926v-46.545z" fill="#8D00C9"/><path d="M261.976 226.296h-67.389v41.938h67.389v-41.938z" fill="#fff"/><path d="M248.658 228.176v-.068h-54.071v.136a.954.954 0 0 1 0 .131v38.052h54.279a11.325 11.325 0 0 1 10.931-10.999V239.41a11.325 11.325 0 0 1-11.139-11.234z" fill="#8D00C9"/><path d="M235.194 247.265a13.669 13.669 0 0 0-23.332-9.687 13.67 13.67 0 0 0 2.06 21.038 13.677 13.677 0 0 0 7.596 2.307 13.686 13.686 0 0 0 13.676-13.658z" fill="#fff"/><path d="M209.074 247.374a12.361 12.361 0 0 1 2.087-6.869 12.356 12.356 0 0 1 5.551-4.553 12.359 12.359 0 0 1 7.145-.702 12.38 12.38 0 0 1 6.331 3.385 12.372 12.372 0 0 1 2.678 13.477 12.362 12.362 0 0 1-11.425 7.633 12.358 12.358 0 0 1-12.367-12.371zm36.213-.988h-6.269v1.758h6.269v-1.758zm8.535 0h-6.27v1.758h6.27v-1.758zm-48.925 0h-6.269v1.758h6.269v-1.758zm85.437-33.698a16.273 16.273 0 1 0 6.227 31.305 16.274 16.274 0 0 0 10.045-15.033 16.306 16.306 0 0 0-16.272-16.272z" fill="#fff"/><path d="M302.524 228.815a12.078 12.078 0 0 1-7.455 11.165 12.08 12.08 0 1 1 7.455-11.165z" fill="#DDD"/><path d="M295.552 225.186v-.503a2.21 2.21 0 0 0-.507-1.467 1.556 1.556 0 0 0-1.255-.63h-2.84v-1.975h-1.232v1.975h-2.841a1.542 1.542 0 0 0-1.254.63 2.216 2.216 0 0 0-.508 1.467v2.859a2.218 2.218 0 0 0 .508 1.468 1.555 1.555 0 0 0 1.254.629h6.913c.304 0 .535.295.535.684v2.877c0 .389-.231.684-.535.684h-6.913c-.303 0-.534-.295-.534-.684v-.485h-1.228v.485a2.23 2.23 0 0 0 .508 1.472 1.556 1.556 0 0 0 1.254.625h2.841v1.975h1.232v-1.975h2.84a1.554 1.554 0 0 0 1.255-.625c.341-.414.521-.937.507-1.472v-2.877a2.21 2.21 0 0 0-.507-1.467 1.559 1.559 0 0 0-1.255-.63h-6.913c-.303 0-.534-.295-.534-.684v-2.859c0-.389.231-.684.534-.684h6.913c.304 0 .535.295.535.684v.485l1.227.018z" fill="#8D00C9"/><path d="M195.638 142.66h-90.84v131.911h90.84V142.66z" fill="#1B384C"/><path d="M124.748 187.788h-12.277v12.28h12.277v-12.28z" fill="#BCBEC0"/><path d="M124.748 209.712h-12.277v12.285h12.277v-12.285zm0 21.925h-12.277v12.285h12.277v-12.285zm0 21.925h-12.277v12.285h12.277v-12.285z" fill="#fff"/><path d="M145.826 187.788h-12.281v12.28h12.281v-12.28z" fill="#BCBEC0"/><path d="M145.826 209.712h-12.281v12.285h12.281v-12.285zm0 21.925h-12.281v12.285h12.281v-12.285zm0 21.925h-12.281v12.285h12.281v-12.285z" fill="#fff"/><path d="M166.9 187.788h-12.286v12.28H166.9v-12.28z" fill="#BCBEC0"/><path d="M124.748 179.511h-12.277v1.681h12.277v-1.681zm21.078 0h-12.281v1.681h12.281v-1.681zm21.074 0h-12.286v1.681H166.9v-1.681zm0 30.201h-12.286v12.285H166.9v-12.285zm0 21.925h-12.286v12.285H166.9v-12.285zm0 21.925h-12.286v12.285H166.9v-12.285z" fill="#fff"/><path d="M187.973 187.788h-12.285v12.28h12.285v-12.28zm0 21.924h-12.285v12.285h12.285v-12.285zm0 21.925h-12.285v34.21h12.285v-34.21z" fill="#BCBEC0"/><path d="M189.142 150.076h-77.853v22.849h77.853v-22.849zm-5.454 30.273a2.085 2.085 0 1 1-3.239-1.73 2.09 2.09 0 0 1 2.63.26c.39.39.609.919.609 1.47z" fill="#fff"/><path d="M95.715 265.095a.322.322 0 0 1 .33.308v4.824a.318.318 0 0 1-.33.308h-9.486a.321.321 0 0 1-.33-.308v-4.824a.321.321 0 0 1 .33-.308h9.486z" fill="#BCBEC0"/><path d="M85.898 263.641v1.739h10.138v-1.739a.318.318 0 0 0-.33-.308h-9.477a.321.321 0 0 0-.33.308z" fill="#fff"/><path d="M85.898 187.525v75.98H96.05v-92.732H85.898v16.752z" fill="#DDD"/><path d="M89.608 187.525v75.98h2.723v-92.732h-2.723v16.752z" fill="#1B384C"/><path d="M96.073 170.818l-5.097 2.596-5.105-2.596 5.105-11.886 5.097 11.886z" fill="#fff"/><path d="M88.843 163.892H93.1l-2.125-4.96-2.133 4.96z" fill="#1B384C"/></svg>