<svg width="363" height="363" viewBox="0 0 363 363" fill="none" xmlns="http://www.w3.org/2000/svg">
<path d="M320.449 181.5C320.449 258.237 258.239 320.446 181.504 320.446C104.77 320.446 42.5549 258.237 42.5549 181.5C42.5549 104.763 104.761 42.554 181.504 42.554C258.248 42.554 320.449 104.763 320.449 181.5Z" fill="#171717"/>
<path d="M1.35895 183.665C0.774574 134.484 20.1586 85.2439 58.999 49.2673C97.8394 13.2908 148.417 -2.26497 197.414 2.04298L198.723 0.828963C195.312 0.507339 191.883 0.267254 188.449 0.135886C164.63 -0.776262 140.865 3.01194 118.51 11.2842C96.1551 19.5564 75.6485 32.1507 58.1612 48.348C40.6738 64.5452 26.5481 84.0282 16.5905 105.685C6.63293 127.341 1.03855 150.746 0.12678 174.565C-6.02221e-05 178.025 -0.0272404 181.455 0.03165 184.879L1.35895 183.665Z" fill="white"/>
<path d="M337.097 90.4894L338.067 89.5835C321.893 62.1866 298.869 39.4693 271.258 23.6642L270.248 24.6019C297.953 40.2831 321.017 63.0147 337.097 90.4894Z" fill="#8D00C9"/>
<path d="M360.277 159.045C367.195 214.718 348.187 272.796 303.992 313.737C231.058 381.278 116.807 376.911 49.2595 303.993C36.6128 290.361 26.1611 274.847 18.2786 258.006L17.2639 258.943C25.2184 275.747 35.7001 291.233 48.3444 304.863C81.2913 340.409 126.116 361.034 174.56 362.846C223.004 364.658 269.274 347.58 304.839 314.629C340.404 281.679 361.016 236.883 362.855 188.444C363.25 178.25 362.795 168.04 361.496 157.922L360.277 159.045Z" fill="white"/>
<path d="M50.4826 109.687C56.1023 99.4339 62.9078 89.8767 70.759 81.2122C124.929 21.4174 216.861 15.6916 277.994 67.4549L278.796 66.5489C248.979 41.3049 210.518 28.6372 171.535 31.2211C132.552 33.805 96.0996 51.4382 69.8756 80.3968C61.8058 89.2952 54.8228 99.1216 49.0737 109.669L50.4826 109.687Z" fill="white"/>
<path d="M32.4121 172.889H31.1392C30.8401 178.237 30.8219 183.597 31.0848 188.947C32.8709 227.122 49.2053 263.165 76.7339 289.674L77.5357 288.768C45.2683 257.548 30.0293 214.885 32.4121 172.889Z" fill="#8D00C9"/>
<path d="M313.931 109.687C312.421 106.897 310.816 104.156 309.115 101.466L308.237 102.43C309.727 104.813 311.131 107.237 312.472 109.678L313.931 109.687Z" fill="white"/>
<path d="M331.843 172.889H330.57C331.751 192.678 328.969 212.505 322.388 231.206C315.806 249.906 305.557 267.105 292.241 281.792C246.433 332.351 173.677 344.237 115.335 315.445L114.46 316.414C137.992 328.094 164.169 333.418 190.393 331.856C216.618 330.295 241.978 321.902 263.958 307.512C285.937 293.122 303.771 273.235 315.689 249.824C327.608 226.412 333.197 200.291 331.901 174.053C331.892 173.668 331.865 173.278 331.843 172.889Z" fill="white"/>
<path d="M242.465 331.168C244.662 330.262 246.868 329.27 249.02 328.256L248.508 327.177C246.374 328.188 244.186 329.157 242.007 330.068L242.465 331.168Z" fill="white"/>
<path d="M50.7633 277.647L49.8301 278.359C51.2525 280.27 52.7338 282.168 54.2333 284.007L55.1393 283.251C53.6444 281.43 52.1766 279.541 50.7633 277.647Z" fill="white"/>
<path d="M42.786 265.906L41.7712 266.531C43.0125 268.551 44.3216 270.572 45.658 272.538L46.641 271.867C45.3001 269.906 44.0227 267.903 42.786 265.906Z" fill="white"/>
<path d="M25.495 227.003L24.3489 227.338C25.0193 229.626 25.7487 231.922 26.5188 234.174L27.6331 233.789C26.8812 231.555 26.1564 229.268 25.495 227.003Z" fill="white"/>
<path d="M69.6852 298.838L68.8562 299.708C70.5912 301.334 72.3851 302.947 74.1926 304.501L74.9672 303.595C73.1824 302.055 71.4021 300.456 69.6852 298.838Z" fill="white"/>
<path d="M35.8777 253.471L34.8086 254.006C35.8732 256.135 37.0011 258.268 38.1563 260.348L39.1982 259.768C38.0521 257.702 36.9332 255.587 35.8777 253.471Z" fill="white"/>
<path d="M30.0974 240.47L28.9875 240.923C29.8573 243.138 30.7996 245.363 31.7509 247.537L32.8426 247.052C31.8822 244.878 30.9581 242.672 30.0974 240.47Z" fill="white"/>
<path d="M229.002 336.119C231.267 335.404 233.554 334.625 235.797 333.805L235.385 332.686C233.169 333.497 230.904 334.271 228.648 334.982L229.002 336.119Z" fill="white"/>
<path d="M200.879 341.102L201.033 342.285C203.394 341.972 205.781 341.61 208.123 341.193L207.915 340.02C205.591 340.45 203.221 340.813 200.879 341.102Z" fill="white"/>
<path d="M214.9 338.652L215.154 339.816C217.477 339.299 219.824 338.724 222.121 338.108L221.808 336.958C219.53 337.569 217.206 338.14 214.9 338.652Z" fill="white"/>
<path d="M80.4757 308.111L79.7283 309.053C81.5992 310.521 83.529 311.971 85.4633 313.357L86.1564 312.387C84.2583 311.01 82.3376 309.574 80.4757 308.111Z" fill="white"/>
<path d="M92.0454 316.405L91.3931 317.406C93.3908 318.706 95.4384 319.979 97.4905 321.189L98.0975 320.165C96.0635 318.96 94.025 317.696 92.0454 316.405Z" fill="white"/>
<path d="M121.622 331.59C120.127 331.01 118.632 330.412 117.16 329.778L116.707 330.874C118.383 331.59 120.095 332.269 121.808 332.93L121.622 331.59Z" fill="white"/>
<path d="M104.304 323.653L103.738 324.704C105.844 325.827 107.996 326.915 110.148 327.938L110.659 326.865C108.53 325.846 106.392 324.763 104.304 323.653Z" fill="white"/>
<path d="M59.751 288.66L58.845 289.452C60.4305 291.224 62.0749 292.99 63.7329 294.689L64.5891 293.856C62.9673 292.179 61.3229 290.417 59.751 288.66Z" fill="white"/>
<path d="M55.5335 79.4636L54.6275 78.7072C53.1145 80.5508 51.6241 82.4443 50.2017 84.3469L51.1575 85.0626C52.5482 83.1782 54.0295 81.2937 55.5335 79.4636Z" fill="white"/>
<path d="M74.6502 58.2592C72.8382 59.7993 71.0489 61.4074 69.3093 63.0337L70.1247 63.9034C71.8507 62.2908 73.631 60.6962 75.4249 59.1651L74.6502 58.2592Z" fill="white"/>
<path d="M64.1813 68.0393C62.5188 69.7335 60.8698 71.4911 59.2798 73.2668L60.1858 74.0641C61.7622 72.302 63.4021 70.5579 65.051 68.8728L64.1813 68.0393Z" fill="white"/>
<path d="M84.9151 50.1869C83.3205 51.3375 81.7441 52.5198 80.1948 53.7248L80.9287 54.667C82.2877 53.6024 83.6875 52.556 85.0873 51.5323L84.9151 50.1869Z" fill="white"/>
<path d="M151.697 23.1569L151.484 21.9836C149.373 22.3551 147.244 22.7854 145.142 23.243L145.296 24.4298C147.416 23.9632 149.563 23.5555 151.697 23.1569Z" fill="white"/>
<path d="M186.768 342.357L186.918 343.544C189.242 343.44 191.593 343.286 193.908 343.091L193.803 341.904C191.475 342.099 189.106 342.253 186.768 342.357Z" fill="white"/>
<path d="M46.007 90.177C44.648 92.143 43.3478 94.1633 42.093 96.1882L43.1077 96.8179C44.3535 94.8111 45.6581 92.7998 46.9945 90.852L46.007 90.177Z" fill="white"/>
<path d="M38.4462 102.376C37.2819 104.451 36.1449 106.58 35.0713 108.718L36.1358 109.257C37.2049 107.141 38.3284 105.026 39.4835 102.969L38.4462 102.376Z" fill="white"/>
<path d="M22.5729 142.289C21.9931 144.599 21.4586 146.959 20.9829 149.301L22.1517 149.537C22.6273 147.213 23.1528 144.876 23.7281 142.579L22.5729 142.289Z" fill="white"/>
<path d="M31.9819 115.177C31.0034 117.352 30.0612 119.576 29.1824 121.791L30.2877 122.244C31.162 120.047 32.0997 117.841 33.0691 115.685L31.9819 115.177Z" fill="white"/>
<path d="M26.6773 128.523C25.8936 130.788 25.1507 133.053 24.4712 135.358L25.6128 135.698C26.2877 133.433 27.0261 131.146 27.8008 128.903L26.6773 128.523Z" fill="white"/>
<path d="M335.263 227.977C335.947 225.685 336.585 223.356 337.165 221.046L336.01 220.756C335.435 223.048 334.796 225.363 334.116 227.633L335.263 227.977Z" fill="white"/>
<path d="M327.009 116.287L328.101 115.807C327.136 113.633 326.112 111.45 325.047 109.316L323.983 109.85C325.034 111.966 326.053 114.154 327.009 116.287Z" fill="white"/>
<path d="M304.757 80.048L305.663 79.296C304.159 77.4523 302.596 75.6177 301.02 73.8601L300.114 74.6528C301.7 76.3969 303.262 78.2179 304.757 80.048Z" fill="white"/>
<path d="M255.434 325.057C257.532 323.957 259.638 322.792 261.686 321.587L261.083 320.555C259.054 321.746 256.966 322.906 254.882 324.002L255.434 325.057Z" fill="white"/>
<path d="M313.238 91.4498L314.225 90.7793C312.893 88.8134 311.507 86.8519 310.085 84.9448L309.125 85.656C310.533 87.5495 311.915 89.4974 313.238 91.4498Z" fill="white"/>
<path d="M180.372 20.6518V19.4785C177.998 19.4785 175.584 19.5238 173.206 19.6235L173.255 20.8148C175.616 20.6971 178.03 20.6472 180.372 20.6518Z" fill="white"/>
<path d="M158.728 22.0697L159.076 22.0199C161.427 21.7164 163.806 21.4582 166.152 21.2543L166.048 20.0675C163.688 20.2714 161.292 20.5205 158.918 20.8376L158.573 20.8829L158.728 22.0697Z" fill="white"/>
<path d="M194.587 21.2906L194.696 20.1037C192.327 19.8863 189.917 19.7232 187.543 19.6145L187.489 20.8376C189.849 20.9327 192.236 21.0958 194.587 21.2906Z" fill="white"/>
<path d="M236.164 30.8035L236.58 29.6891C234.343 28.8511 232.05 28.0538 229.785 27.3199L229.418 28.457C231.674 29.1727 233.939 29.9654 236.164 30.8035Z" fill="white"/>
<path d="M222.601 26.4003L222.914 25.2497C220.626 24.6155 218.279 24.0266 215.946 23.4921L215.684 24.6563C217.994 25.1817 220.322 25.7706 222.601 26.4003Z" fill="white"/>
<path d="M208.689 23.2249L208.902 22.0516C206.556 21.6258 204.173 21.2453 201.822 20.9282L201.659 22.1105C204.001 22.4276 206.361 22.8036 208.689 23.2249Z" fill="white"/>
<path d="M320.671 103.549L321.709 102.969C320.558 100.89 319.344 98.8155 318.107 96.7952L317.102 97.4203C318.316 99.4225 319.525 101.47 320.671 103.549Z" fill="white"/>
<path d="M300.386 290.027C301.976 288.256 303.557 286.431 305.061 284.592L304.155 283.831C302.66 285.643 301.097 287.454 299.516 289.226L300.386 290.027Z" fill="white"/>
<path d="M309.491 278.956C310.918 277.058 312.327 275.097 313.673 273.131L312.69 272.456C311.331 274.408 309.972 276.356 308.54 278.241L309.491 278.956Z" fill="white"/>
<path d="M317.596 267.124C318.855 265.104 320.082 263.025 321.251 260.95L320.214 260.366C319.054 262.427 317.831 264.488 316.59 266.495L317.596 267.124Z" fill="white"/>
<path d="M267.783 317.837C269.772 316.55 271.77 315.2 273.709 313.823L273.02 312.849C271.09 314.208 269.111 315.567 267.131 316.836L267.783 317.837Z" fill="white"/>
<path d="M324.63 254.622C325.709 252.493 326.746 250.318 327.729 248.149L326.642 247.655C325.668 249.811 324.635 251.972 323.566 254.083L324.63 254.622Z" fill="white"/>
<path d="M279.448 309.547C281.319 308.088 283.185 306.566 284.997 305.017L284.227 304.111C282.415 305.647 280.572 307.16 278.714 308.605L279.448 309.547Z" fill="white"/>
<path d="M290.347 300.252C292.087 298.63 293.813 296.945 295.475 295.269L294.624 294.435C292.975 296.116 291.258 297.787 289.532 299.396L290.347 300.252Z" fill="white"/>
<path d="M338.946 157.188L340.123 157.007C339.761 154.647 339.344 152.268 338.887 149.945L337.713 150.18C338.171 152.459 338.583 154.819 338.946 157.188Z" fill="white"/>
<path d="M330.533 241.539C331.439 239.329 332.264 237.064 333.047 234.808L331.92 234.418C331.145 236.652 330.302 238.899 329.428 241.096L330.533 241.539Z" fill="white"/>
<path d="M332.191 129.555L333.324 129.175C332.554 126.91 331.725 124.645 330.859 122.439L329.75 122.892C330.61 125.057 331.43 127.29 332.191 129.555Z" fill="white"/>
<path d="M336.178 143.204L337.337 142.923C336.776 140.613 336.151 138.285 335.485 135.997L334.316 136.35C335 138.615 335.621 140.912 336.178 143.204Z" fill="white"/>
<path d="M341.673 171.231C341.523 168.866 341.315 166.465 341.052 164.087L339.87 164.218C340.128 166.574 340.323 168.961 340.486 171.308L341.673 171.231Z" fill="white"/>
<path d="M338.76 214.038C339.24 211.705 339.666 209.332 340.042 206.981L338.864 206.795C338.492 209.128 338.067 211.488 337.595 213.798L338.76 214.038Z" fill="white"/>
<path d="M341.002 199.878C341.27 197.513 341.487 195.108 341.646 192.734L340.454 192.653C340.296 195.013 340.083 197.395 339.815 199.742L341.002 199.878Z" fill="white"/>
<path d="M341.976 185.572C342.03 183.189 342.03 180.78 341.976 178.401L340.78 178.429C340.83 180.784 340.826 183.18 340.78 185.545L341.976 185.572Z" fill="white"/>
<path d="M246.012 127.336C246.818 123.494 246.99 119.526 245.717 115.766C244.259 111.44 239.57 111.354 239.57 111.354H174.619V127.336H246.012Z" fill="#8D00C9"/>
<path d="M246.569 128.024H173.953V110.666H239.593C239.661 110.666 244.793 110.815 246.388 115.549C247.557 119.01 247.661 122.915 246.701 127.476L246.569 128.024ZM175.307 126.665H245.446C246.234 122.589 246.112 119.096 245.065 116.007C243.783 112.206 239.729 112.066 239.557 112.061H175.312L175.307 126.665Z" fill="white"/>
<path d="M239.915 111.354H169.699C163.475 111.354 161.464 114.897 161.464 120.758V210.786H162.691V220.217H227.656C227.656 220.217 232.34 220.131 233.804 215.8C234.346 214.181 234.651 212.492 234.71 210.786H234.741V121.71C234.741 121.71 234.066 112.342 239.915 111.354Z" fill="white"/>
<path d="M227.661 220.906H162.016V211.474H160.789V120.758C160.789 113.873 163.624 110.666 169.713 110.666H239.928L240.046 112.025C234.873 112.931 235.421 121.565 235.425 121.651V211.474H235.357C235.249 213.017 234.945 214.539 234.451 216.004C232.852 220.738 227.715 220.883 227.656 220.888L227.661 220.906ZM163.393 219.524H227.647C227.887 219.524 231.878 219.347 233.151 215.583C233.667 214.023 233.956 212.397 234.007 210.754L234.039 210.011V121.71C234.039 121.415 233.613 115.001 236.92 112.043H169.713C164.44 112.043 162.175 114.652 162.175 120.758V210.097H163.402L163.393 219.524Z" fill="white"/>
<path d="M195.978 131.218H169.849V133.198H195.978V131.218Z" fill="#BCBEC0"/>
<path d="M197.011 130.185H168.816V134.23H197.011V130.185Z" fill="#BCBEC0"/>
<path d="M228.367 131.218H202.238V133.198H228.367V131.218Z" fill="#BCBEC0"/>
<path d="M229.4 130.185H201.206V134.23H229.4V130.185Z" fill="#BCBEC0"/>
<path d="M195.978 138.57H169.849V140.545H195.978V138.57Z" fill="#BCBEC0"/>
<path d="M197.011 137.537H168.816V141.582H197.011V137.537Z" fill="#BCBEC0"/>
<path d="M228.367 138.57H202.238V140.545H228.367V138.57Z" fill="#BCBEC0"/>
<path d="M229.4 137.537H201.206V141.582H229.4V137.537Z" fill="#BCBEC0"/>
<path d="M195.978 148.223H169.849V150.203H195.978V148.223Z" fill="#BCBEC0"/>
<path d="M197.011 147.19H168.816V151.236H197.011V147.19Z" fill="#BCBEC0"/>
<path d="M228.367 148.223H202.238V150.203H228.367V148.223Z" fill="#BCBEC0"/>
<path d="M229.4 147.19H201.206V151.236H229.4V147.19Z" fill="#BCBEC0"/>
<path d="M195.978 155.575H169.849V157.555H195.978V155.575Z" fill="#BCBEC0"/>
<path d="M197.011 154.538H168.816V158.583H197.011V154.538Z" fill="#BCBEC0"/>
<path d="M228.367 155.575H202.238V157.555H228.367V155.575Z" fill="#BCBEC0"/>
<path d="M229.4 154.538H201.206V158.583H229.4V154.538Z" fill="#BCBEC0"/>
<path d="M195.978 167.521H169.849V169.5H195.978V167.521Z" fill="#BCBEC0"/>
<path d="M197.011 166.488H168.816V170.533H197.011V166.488Z" fill="#BCBEC0"/>
<path d="M228.367 167.521H202.238V169.5H228.367V167.521Z" fill="#BCBEC0"/>
<path d="M229.4 166.488H201.206V170.533H229.4V166.488Z" fill="#BCBEC0"/>
<path d="M195.978 174.868H169.849V176.843H195.978V174.868Z" fill="#BCBEC0"/>
<path d="M197.011 173.835H168.816V177.881H197.011V173.835Z" fill="#BCBEC0"/>
<path d="M228.367 174.868H202.238V176.843H228.367V174.868Z" fill="#BCBEC0"/>
<path d="M229.4 173.835H201.206V177.881H229.4V173.835Z" fill="#BCBEC0"/>
<path d="M195.978 184.521H169.849V186.501H195.978V184.521Z" fill="#BCBEC0"/>
<path d="M197.011 183.489H168.816V187.534H197.011V183.489Z" fill="#BCBEC0"/>
<path d="M228.367 184.521H202.238V186.501H228.367V184.521Z" fill="#BCBEC0"/>
<path d="M229.4 183.489H201.206V187.534H229.4V183.489Z" fill="#BCBEC0"/>
<path d="M195.978 191.873H169.849V193.853H195.978V191.873Z" fill="#BCBEC0"/>
<path d="M197.011 190.841H168.816V194.886H197.011V190.841Z" fill="#BCBEC0"/>
<path d="M228.367 191.873H202.238V193.853H228.367V191.873Z" fill="#BCBEC0"/>
<path d="M229.4 190.841H201.206V194.886H229.4V190.841Z" fill="#BCBEC0"/>
<path d="M222.809 209.862V77.6517C222.867 75.5285 222.56 73.4111 221.903 71.3914C220.44 67.0653 215.756 66.9792 215.756 66.9792H150.791V77.6517H149.559V210.831C149.559 216.693 151.57 220.235 157.794 220.235H228.01C222.152 219.216 222.809 209.862 222.809 209.862Z" fill="#8D00C9"/>
<path d="M228.001 220.906H157.785C151.697 220.906 148.861 217.699 148.861 210.813V76.9632H150.093V66.2908H215.733C215.797 66.2908 220.934 66.4403 222.528 71.174C223.172 73.1124 223.493 75.143 223.48 77.1852V209.862C223.48 209.998 222.936 218.654 228.096 219.538L228.001 220.906ZM150.247 78.3403V210.813C150.247 216.919 152.512 219.524 157.794 219.524H225.006C221.699 216.566 222.098 210.147 222.125 209.812V78.3403V77.6427C222.183 75.5973 221.885 73.5574 221.246 71.6134C219.96 67.8128 215.91 67.6724 215.733 67.6679H151.479V78.3403H150.247Z" fill="white"/>
<path d="M210.895 166.411V77.3346C210.895 77.3346 210.238 67.9758 216.082 66.9792H145.867C139.642 66.9792 137.631 70.5216 137.631 76.3833V166.411H210.895Z" fill="white"/>
<path d="M211.588 167.099H136.956V76.3834C136.956 69.4979 139.792 66.2908 145.88 66.2908H216.082L216.2 67.6497C211.027 68.5331 211.575 77.1897 211.579 77.2758L211.588 167.099ZM138.333 165.718H210.193V77.3347C210.193 77.0403 209.772 70.6259 213.074 67.6679H145.867C140.58 67.6679 138.32 70.2771 138.32 76.3834L138.333 165.718Z" fill="white"/>
<path d="M210.27 159.997C211.081 163.842 211.249 167.806 209.98 171.566C208.517 175.892 203.828 175.978 203.828 175.978H138.877V159.997H210.27Z" fill="white"/>
<path d="M203.851 176.666H138.188V159.308H210.832L210.945 159.856C211.906 164.418 211.801 168.322 210.633 171.788C209.034 176.517 203.896 176.666 203.851 176.666ZM139.579 175.308H203.819C204.06 175.308 208.051 175.126 209.323 171.362C210.37 168.273 210.497 164.785 209.709 160.703H139.566L139.579 175.308Z" fill="white"/>
<path d="M171.126 93.6333H144.997V95.6129H171.126V93.6333Z" fill="#BCBEC0"/>
<path d="M172.159 92.6005H143.964V96.6457H172.159V92.6005Z" fill="#BCBEC0"/>
<path d="M203.516 93.6333H177.387V95.6129H203.516V93.6333Z" fill="#BCBEC0"/>
<path d="M204.549 92.6005H176.354V96.6457H204.549V92.6005Z" fill="#BCBEC0"/>
<path d="M171.126 100.985H144.997V102.96H171.126V100.985Z" fill="#BCBEC0"/>
<path d="M172.159 99.9524H143.964V103.998H172.159V99.9524Z" fill="#BCBEC0"/>
<path d="M203.516 100.985H177.387V102.96H203.516V100.985Z" fill="#BCBEC0"/>
<path d="M204.549 99.9524H176.354V103.998H204.549V99.9524Z" fill="#BCBEC0"/>
<path d="M171.126 110.639H144.997V112.618H171.126V110.639Z" fill="#BCBEC0"/>
<path d="M172.159 109.606H143.964V113.651H172.159V109.606Z" fill="#BCBEC0"/>
<path d="M203.516 110.639H177.387V112.618H203.516V110.639Z" fill="#BCBEC0"/>
<path d="M204.549 109.606H176.354V113.651H204.549V109.606Z" fill="#BCBEC0"/>
<path d="M171.126 117.99H144.997V119.97H171.126V117.99Z" fill="#BCBEC0"/>
<path d="M172.159 116.953H143.964V120.999H172.159V116.953Z" fill="#BCBEC0"/>
<path d="M203.516 117.99H177.387V119.97H203.516V117.99Z" fill="#BCBEC0"/>
<path d="M204.549 116.953H176.354V120.999H204.549V116.953Z" fill="#BCBEC0"/>
<path d="M171.126 129.936H144.997V131.916H171.126V129.936Z" fill="#BCBEC0"/>
<path d="M172.159 128.903H143.964V132.948H172.159V128.903Z" fill="#BCBEC0"/>
<path d="M203.516 129.936H177.387V131.916H203.516V129.936Z" fill="#BCBEC0"/>
<path d="M204.549 128.903H176.354V132.948H204.549V128.903Z" fill="#BCBEC0"/>
<path d="M171.126 137.283H144.997V139.258H171.126V137.283Z" fill="#BCBEC0"/>
<path d="M172.159 136.251H143.964V140.296H172.159V136.251Z" fill="#BCBEC0"/>
<path d="M203.516 137.283H177.387V139.258H203.516V137.283Z" fill="#BCBEC0"/>
<path d="M204.549 136.251H176.354V140.296H204.549V136.251Z" fill="#BCBEC0"/>
<path d="M171.126 146.937H144.997V148.916H171.126V146.937Z" fill="#BCBEC0"/>
<path d="M172.159 145.904H143.964V149.949H172.159V145.904Z" fill="#BCBEC0"/>
<path d="M203.516 146.937H177.387V148.916H203.516V146.937Z" fill="#BCBEC0"/>
<path d="M204.549 145.904H176.354V149.949H204.549V145.904Z" fill="#BCBEC0"/>
<path d="M171.126 154.289H144.997V156.268H171.126V154.289Z" fill="#BCBEC0"/>
<path d="M172.159 153.256H143.964V157.301H172.159V153.256Z" fill="#BCBEC0"/>
<path d="M203.516 154.289H177.387V156.268H203.516V154.289Z" fill="#BCBEC0"/>
<path d="M204.549 153.256H176.354V157.301H204.549V153.256Z" fill="#BCBEC0"/>
<path d="M198.986 165.623V130.38C198.986 130.072 198.986 129.764 198.986 129.474V129.302C198.946 127.519 198.64 125.753 198.08 124.061C196.617 119.735 191.928 119.648 191.928 119.648H126.972V129.284H125.735V166.574C125.735 172.435 127.747 175.978 133.971 175.978H204.186C198.329 174.981 198.986 165.623 198.986 165.623Z" fill="#8D00C9"/>
<path d="M204.177 176.666H133.962C127.873 176.666 125.038 173.459 125.038 166.574V128.595H126.274V118.937H191.914C191.982 118.937 197.119 119.091 198.709 123.821C199.22 125.365 199.525 126.971 199.615 128.595H199.643V129.456C199.643 129.755 199.643 130.072 199.643 130.393V165.623C199.643 165.758 199.099 174.42 204.259 175.298L204.177 176.666ZM126.424 129.972V166.574C126.424 172.685 128.689 175.289 133.971 175.289H201.178C197.871 172.331 198.275 165.908 198.297 165.577V130.38C198.297 130.072 198.297 129.773 198.297 129.474V129.302C198.261 127.587 197.969 125.888 197.432 124.26C196.145 120.455 192.091 120.319 191.919 120.314H127.665V129.968L126.424 129.972Z" fill="white"/>
<path d="M187.09 245.906V129.981C187.09 129.981 186.433 120.627 192.281 119.63H122.066C115.842 119.63 113.83 123.173 113.83 129.03V245.902L187.09 245.906Z" fill="white"/>
<path d="M187.769 246.595H113.142V129.03C113.142 122.144 115.978 118.937 122.066 118.937H192.281L192.395 120.296C187.221 121.175 187.769 129.832 187.779 129.918L187.769 246.595ZM114.519 245.236H186.392V129.981C186.392 129.691 185.967 123.272 189.273 120.319H122.066C116.775 120.319 114.519 122.924 114.519 129.03V245.236Z" fill="white"/>
<path d="M147.42 135.159H121.291V137.139H147.42V135.159Z" fill="#BCBEC0"/>
<path d="M148.453 134.126H120.259V138.171H148.453V134.126Z" fill="#BCBEC0"/>
<path d="M179.806 135.159H153.677V137.139H179.806V135.159Z" fill="#BCBEC0"/>
<path d="M180.838 134.126H152.644V138.171H180.838V134.126Z" fill="#BCBEC0"/>
<path d="M147.42 142.506H121.291V144.481H147.42V142.506Z" fill="#BCBEC0"/>
<path d="M148.453 141.474H120.259V145.519H148.453V141.474Z" fill="#BCBEC0"/>
<path d="M179.806 142.506H153.677V144.481H179.806V142.506Z" fill="#BCBEC0"/>
<path d="M180.838 141.474H152.644V145.519H180.838V141.474Z" fill="#BCBEC0"/>
<path d="M147.42 152.16H121.291V154.139H147.42V152.16Z" fill="#BCBEC0"/>
<path d="M148.453 151.127H120.259V155.172H148.453V151.127Z" fill="#BCBEC0"/>
<path d="M179.806 152.16H153.677V154.139H179.806V152.16Z" fill="#BCBEC0"/>
<path d="M180.838 151.127H152.644V155.172H180.838V151.127Z" fill="#BCBEC0"/>
<path d="M147.42 159.512H121.291V161.491H147.42V159.512Z" fill="#BCBEC0"/>
<path d="M148.453 158.479H120.259V162.524H148.453V158.479Z" fill="#BCBEC0"/>
<path d="M179.806 159.512H153.677V161.491H179.806V159.512Z" fill="#BCBEC0"/>
<path d="M180.838 158.479H152.644V162.524H180.838V158.479Z" fill="#BCBEC0"/>
<path d="M242.356 173.876C242.356 176.904 243.254 179.865 244.937 182.382C246.619 184.9 249.01 186.863 251.808 188.022C254.606 189.181 257.685 189.484 260.655 188.893C263.625 188.302 266.353 186.844 268.495 184.703C270.636 182.561 272.094 179.833 272.685 176.863C273.276 173.893 272.973 170.814 271.814 168.017C270.655 165.219 268.692 162.828 266.174 161.145C263.656 159.463 260.696 158.565 257.668 158.565C253.609 158.571 249.718 160.186 246.847 163.056C243.977 165.926 242.362 169.817 242.356 173.876Z" fill="white"/>
<path d="M257.686 190.614C254.376 190.614 251.141 189.633 248.389 187.795C245.637 185.957 243.491 183.344 242.224 180.287C240.956 177.23 240.623 173.865 241.267 170.619C241.912 167.373 243.503 164.39 245.842 162.049C248.181 159.707 251.161 158.111 254.407 157.463C257.652 156.814 261.017 157.142 264.076 158.406C267.135 159.669 269.75 161.811 271.592 164.561C273.434 167.31 274.42 170.544 274.424 173.854C274.424 178.295 272.662 182.555 269.523 185.697C266.385 188.84 262.127 190.608 257.686 190.614Z" fill="white"/>
<path d="M268.852 173.745C268.852 175.932 268.204 178.071 266.988 179.89C265.773 181.709 264.046 183.127 262.025 183.964C260.003 184.802 257.779 185.021 255.634 184.594C253.488 184.168 251.517 183.115 249.969 181.568C248.422 180.022 247.368 178.051 246.941 175.906C246.514 173.76 246.732 171.536 247.569 169.515C248.405 167.493 249.822 165.765 251.641 164.549C253.46 163.333 255.598 162.684 257.786 162.683C259.239 162.682 260.678 162.968 262.02 163.523C263.363 164.079 264.583 164.894 265.611 165.921C266.638 166.948 267.454 168.168 268.01 169.51C268.566 170.853 268.852 172.292 268.852 173.745Z" fill="#DDDDDD"/>
<path d="M257.464 172.39H252.377V173.686H257.464V172.39Z" fill="#8D00C9"/>
<path d="M257.464 174.375H252.377V175.67H257.464V174.375Z" fill="#8D00C9"/>
<path d="M263 170.424V169.971C263.018 169.478 262.857 168.995 262.547 168.612C262.409 168.436 262.232 168.294 262.03 168.198C261.828 168.102 261.606 168.054 261.382 168.06H255.04C254.817 168.059 254.597 168.11 254.398 168.209C254.198 168.308 254.024 168.453 253.89 168.631C253.579 169.014 253.418 169.497 253.437 169.989V172.377V177.36V177.813C253.436 177.94 253.446 178.067 253.464 178.193C253.525 178.551 253.681 178.886 253.917 179.163C254.048 179.334 254.215 179.474 254.407 179.572C254.599 179.67 254.811 179.724 255.027 179.729H261.382C261.606 179.729 261.826 179.678 262.026 179.578C262.226 179.478 262.399 179.332 262.533 179.153C262.844 178.77 263.004 178.287 262.986 177.795V177.387H261.858V177.795C261.858 178.152 261.65 178.424 261.373 178.424H255.04C254.962 178.422 254.886 178.399 254.82 178.359C254.753 178.318 254.698 178.261 254.66 178.193L254.633 178.152V178.121C254.614 178.091 254.599 178.059 254.587 178.026C254.585 178.007 254.585 177.989 254.587 177.971C254.585 177.95 254.585 177.929 254.587 177.908C254.583 177.864 254.583 177.82 254.587 177.776V171.72V169.976C254.569 169.828 254.611 169.679 254.703 169.562C254.794 169.445 254.929 169.369 255.077 169.351H261.419C261.695 169.351 261.903 169.623 261.903 169.976V170.429L263 170.424Z" fill="#8D00C9"/>
<path d="M264.513 223.995H194.587V270.54H264.513V223.995Z" fill="#8D00C9"/>
<path d="M261.976 226.296H194.587V268.234H261.976V226.296Z" fill="white"/>
<path d="M248.658 228.176C248.658 228.176 248.658 228.131 248.658 228.108H194.587V228.244C194.59 228.288 194.59 228.332 194.587 228.375C194.587 228.416 194.587 228.452 194.587 228.493V266.359C194.587 266.359 194.587 266.404 194.587 266.427H248.866C248.947 263.547 250.123 260.807 252.154 258.763C254.184 256.72 256.918 255.527 259.797 255.428V239.41C256.841 239.362 254.022 238.16 251.94 236.061C249.859 233.962 248.681 231.132 248.658 228.176Z" fill="#8D00C9"/>
<path d="M235.194 247.265C235.197 244.561 234.398 241.917 232.897 239.667C231.397 237.417 229.263 235.662 226.765 234.625C224.267 233.588 221.518 233.315 218.866 233.841C216.213 234.367 213.775 235.667 211.862 237.578C209.948 239.489 208.644 241.925 208.115 244.577C207.586 247.229 207.855 249.978 208.889 252.477C209.923 254.976 211.674 257.112 213.922 258.616C216.17 260.119 218.814 260.922 221.518 260.923C225.141 260.92 228.616 259.481 231.18 256.921C233.743 254.361 235.187 250.888 235.194 247.265Z" fill="white"/>
<path d="M209.074 247.374C209.075 244.928 209.801 242.538 211.161 240.505C212.52 238.471 214.452 236.887 216.712 235.952C218.972 235.016 221.458 234.772 223.857 235.25C226.255 235.728 228.458 236.906 230.188 238.635C231.917 240.365 233.094 242.569 233.571 244.967C234.048 247.366 233.803 249.853 232.866 252.112C231.93 254.371 230.345 256.303 228.311 257.661C226.278 259.02 223.887 259.745 221.441 259.745C219.817 259.746 218.208 259.426 216.707 258.804C215.206 258.183 213.842 257.272 212.693 256.123C211.545 254.974 210.634 253.61 210.013 252.108C209.392 250.607 209.073 248.998 209.074 247.374Z" fill="white"/>
<path d="M245.287 246.386H239.018V248.144H245.287V246.386Z" fill="white"/>
<path d="M253.822 246.386H247.552V248.144H253.822V246.386Z" fill="white"/>
<path d="M204.897 246.386H198.628V248.144H204.897V246.386Z" fill="white"/>
<path d="M290.334 212.688C287.116 212.688 283.97 213.643 281.294 215.431C278.618 217.219 276.532 219.76 275.301 222.733C274.069 225.706 273.747 228.978 274.375 232.134C275.003 235.291 276.552 238.19 278.828 240.466C281.104 242.741 284.003 244.291 287.159 244.919C290.316 245.547 293.588 245.224 296.561 243.993C299.534 242.761 302.075 240.676 303.863 238C305.651 235.324 306.606 232.178 306.606 228.96C306.596 224.647 304.879 220.514 301.829 217.465C298.78 214.415 294.646 212.698 290.334 212.688Z" fill="white"/>
<path d="M302.524 228.815C302.525 231.205 301.817 233.541 300.49 235.528C299.163 237.516 297.277 239.065 295.069 239.98C292.861 240.895 290.432 241.135 288.088 240.669C285.744 240.204 283.591 239.053 281.901 237.364C280.211 235.674 279.06 233.522 278.593 231.178C278.127 228.834 278.366 226.405 279.28 224.197C280.194 221.989 281.743 220.102 283.73 218.775C285.717 217.447 288.053 216.738 290.442 216.738C293.646 216.738 296.718 218.011 298.984 220.275C301.249 222.54 302.523 225.612 302.524 228.815Z" fill="#DDDDDD"/>
<path d="M295.552 225.186V224.683C295.566 224.149 295.386 223.628 295.045 223.216C294.9 223.02 294.71 222.861 294.493 222.752C294.275 222.642 294.034 222.586 293.79 222.586H290.95V220.611H289.718V222.586H286.877C286.633 222.585 286.393 222.641 286.175 222.751C285.957 222.86 285.767 223.019 285.623 223.216C285.282 223.628 285.102 224.149 285.115 224.683V227.542C285.102 228.076 285.282 228.598 285.623 229.01C285.768 229.205 285.957 229.364 286.175 229.473C286.393 229.583 286.634 229.639 286.877 229.639H293.79C294.094 229.639 294.325 229.934 294.325 230.323V233.2C294.325 233.589 294.094 233.884 293.79 233.884H286.877C286.574 233.884 286.343 233.589 286.343 233.2V232.715H285.115V233.2C285.102 233.735 285.282 234.258 285.623 234.672C285.768 234.867 285.958 235.025 286.176 235.134C286.394 235.242 286.634 235.298 286.877 235.297H289.718V237.272H290.95V235.297H293.79C294.034 235.298 294.274 235.242 294.492 235.133C294.709 235.025 294.899 234.867 295.045 234.672C295.386 234.258 295.566 233.735 295.552 233.2V230.323C295.566 229.789 295.386 229.268 295.045 228.856C294.9 228.66 294.71 228.501 294.493 228.391C294.275 228.282 294.034 228.225 293.79 228.226H286.877C286.574 228.226 286.343 227.931 286.343 227.542V224.683C286.343 224.294 286.574 223.999 286.877 223.999H293.79C294.094 223.999 294.325 224.294 294.325 224.683V225.168L295.552 225.186Z" fill="#8D00C9"/>
<path d="M195.638 142.66H104.798V274.571H195.638V142.66Z" fill="#1B384C"/>
<path d="M124.748 187.788H112.471V200.068H124.748V187.788Z" fill="#BCBEC0"/>
<path d="M124.748 209.712H112.471V221.997H124.748V209.712Z" fill="white"/>
<path d="M124.748 231.637H112.471V243.922H124.748V231.637Z" fill="white"/>
<path d="M124.748 253.562H112.471V265.847H124.748V253.562Z" fill="white"/>
<path d="M145.826 187.788H133.545V200.068H145.826V187.788Z" fill="#BCBEC0"/>
<path d="M145.826 209.712H133.545V221.997H145.826V209.712Z" fill="white"/>
<path d="M145.826 231.637H133.545V243.922H145.826V231.637Z" fill="white"/>
<path d="M145.826 253.562H133.545V265.847H145.826V253.562Z" fill="white"/>
<path d="M166.9 187.788H154.614V200.068H166.9V187.788Z" fill="#BCBEC0"/>
<path d="M124.748 179.511H112.471V181.192H124.748V179.511Z" fill="white"/>
<path d="M145.826 179.511H133.545V181.192H145.826V179.511Z" fill="white"/>
<path d="M166.9 179.511H154.614V181.192H166.9V179.511Z" fill="white"/>
<path d="M166.9 209.712H154.614V221.997H166.9V209.712Z" fill="white"/>
<path d="M166.9 231.637H154.614V243.922H166.9V231.637Z" fill="white"/>
<path d="M166.9 253.562H154.614V265.847H166.9V253.562Z" fill="white"/>
<path d="M187.973 187.788H175.688V200.068H187.973V187.788Z" fill="#BCBEC0"/>
<path d="M187.973 209.712H175.688V221.997H187.973V209.712Z" fill="#BCBEC0"/>
<path d="M187.973 231.637H175.688V265.847H187.973V231.637Z" fill="#BCBEC0"/>
<path d="M189.142 150.076H111.289V172.925H189.142V150.076Z" fill="white"/>
<path d="M183.688 180.349C183.689 180.762 183.567 181.165 183.339 181.509C183.11 181.852 182.785 182.12 182.404 182.278C182.023 182.436 181.603 182.478 181.199 182.398C180.794 182.317 180.422 182.119 180.131 181.827C179.839 181.536 179.64 181.164 179.56 180.759C179.48 180.355 179.521 179.935 179.68 179.554C179.838 179.173 180.106 178.848 180.449 178.619C180.793 178.391 181.196 178.269 181.609 178.27C182.16 178.27 182.689 178.489 183.079 178.879C183.469 179.269 183.688 179.798 183.688 180.349Z" fill="white"/>
<path d="M95.7148 265.095C95.7993 265.092 95.8814 265.123 95.9433 265.181C96.0052 265.239 96.0419 265.318 96.0455 265.403V270.227C96.0443 270.269 96.0348 270.311 96.0175 270.349C96.0002 270.387 95.9754 270.422 95.9446 270.45C95.9138 270.479 95.8777 270.501 95.8382 270.516C95.7988 270.531 95.7568 270.537 95.7148 270.535H86.2289C86.1443 270.538 86.0622 270.507 86.0003 270.449C85.9384 270.391 85.9017 270.312 85.8982 270.227V265.403C85.9017 265.318 85.9384 265.239 86.0003 265.181C86.0622 265.123 86.1443 265.092 86.2289 265.095H95.7148Z" fill="#BCBEC0"/>
<path d="M85.8982 263.641V265.38H96.0364V263.641C96.0352 263.599 96.0257 263.557 96.0084 263.519C95.9911 263.481 95.9663 263.446 95.9355 263.418C95.9048 263.389 95.8686 263.367 95.8291 263.352C95.7897 263.338 95.7477 263.331 95.7057 263.333H86.2289C86.1443 263.33 86.0622 263.361 86.0003 263.419C85.9384 263.477 85.9017 263.556 85.8982 263.641Z" fill="white"/>
<path d="M85.8982 187.525V191.371V241.961V250.309V263.505H96.05V250.309V241.961V191.371V187.525V170.773H85.8982V187.525Z" fill="#DDDDDD"/>
<path d="M89.6084 187.525V191.371V241.961V250.309V263.505H92.3309V250.309V241.961V191.371V187.525V170.773H89.6084V187.525Z" fill="#1B384C"/>
<path d="M96.0727 170.818L90.9764 173.414L85.8711 170.818L90.9764 158.932L96.0727 170.818Z" fill="white"/>
<path d="M88.8428 163.892H93.101L90.9764 158.932L88.8428 163.892Z" fill="#1B384C"/>
</svg>
