<svg width="59" height="59" viewBox="0 0 59 59" fill="none" xmlns="http://www.w3.org/2000/svg"><path d="M57.803 44.787A4.435 4.435 0 0 0 59 41.746V6.149a4.54 4.54 0 0 0-4.536-4.536H6.791C2.917 1.624 0 3.427 0 5.814v47.565c0 2.395 2.933 4.2 6.822 4.2 3.89 0 6.823-1.806 6.823-4.2v-.65h34.53a4.468 4.468 0 0 0 1.88-.416 4.438 4.438 0 0 0 1.235-.85l.034-.035.006-.005.038-.039 6.364-6.523.038-.038a.095.095 0 0 1 .006-.008l.027-.027zM6.822 3.918c1.511 0 2.74.354 3.532.797.632.354.986.764.986 1.1v.011c-.02.755-1.817 1.885-4.518 1.885-2.715 0-4.517-1.142-4.517-1.897 0-.754 1.802-1.896 4.517-1.896zm6.823 46.506V28.336a1.149 1.149 0 0 0-1.153-1.152c-.636 0-1.152.516-1.152 1.152v25.042c0 .755-1.802 1.896-4.518 1.896-2.715 0-4.517-1.14-4.517-1.896V9.014c1.186.63 2.753 1.002 4.517 1.002 1.764 0 3.332-.372 4.518-1.002v10.103a1.152 1.152 0 0 0 2.305 0V5.815c0-.69-.244-1.332-.685-1.896h41.504c1.23 0 2.231 1 2.231 2.23v35.598c0 .065-.002.13-.008.194h-4.264a4.01 4.01 0 0 0-4.006 4.005v4.465c-.08.01-.16.014-.241.014H13.645zm40.69-5.382l-3.613 3.703v-2.8c0-.938.763-1.7 1.7-1.7h2.692l-.779.797z" fill="#fff"/><path d="M29.335 10.882a4.226 4.226 0 0 1-3.485-3.486c-.1-.608-.62-1.05-1.236-1.05s-1.136.442-1.236 1.05a4.227 4.227 0 0 1-3.486 3.486c-.608.1-1.049.62-1.049 1.236s.441 1.135 1.05 1.235a4.227 4.227 0 0 1 3.485 3.487c.1.608.62 1.048 1.236 1.048s1.136-.44 1.236-1.049a4.227 4.227 0 0 1 3.485-3.486c.609-.1 1.05-.62 1.05-1.235 0-.616-.441-1.136-1.05-1.236zm-4.721 2.977a6.545 6.545 0 0 0-1.741-1.741 6.54 6.54 0 0 0 1.741-1.742 6.538 6.538 0 0 0 1.741 1.742 6.536 6.536 0 0 0-1.741 1.74zm4.721 12.076a4.226 4.226 0 0 1-3.485-3.485c-.1-.609-.62-1.05-1.236-1.05s-1.136.441-1.236 1.05a4.227 4.227 0 0 1-3.486 3.485c-.608.1-1.049.62-1.049 1.236s.441 1.136 1.05 1.236a4.227 4.227 0 0 1 3.485 3.486c.1.608.62 1.049 1.236 1.049s1.136-.441 1.236-1.05a4.227 4.227 0 0 1 3.485-3.485c.609-.1 1.05-.62 1.05-1.236s-.441-1.136-1.05-1.236zm-4.721 2.977a6.538 6.538 0 0 0-1.741-1.741 6.538 6.538 0 0 0 1.741-1.741 6.536 6.536 0 0 0 1.741 1.741 6.536 6.536 0 0 0-1.741 1.741zm4.721 12.077a4.226 4.226 0 0 1-3.485-3.486 1.248 1.248 0 0 0-1.236-1.05c-.616 0-1.136.442-1.236 1.05a4.227 4.227 0 0 1-3.486 3.486c-.608.1-1.049.62-1.049 1.235 0 .616.441 1.136 1.05 1.236a4.227 4.227 0 0 1 3.485 3.487c.1.607.62 1.048 1.236 1.048s1.136-.441 1.236-1.049a4.226 4.226 0 0 1 3.485-3.486c.609-.1 1.05-.62 1.05-1.236 0-.615-.441-1.135-1.05-1.235zm-4.721 2.977a6.538 6.538 0 0 0-1.741-1.742 6.538 6.538 0 0 0 1.741-1.74 6.536 6.536 0 0 0 1.741 1.74 6.536 6.536 0 0 0-1.741 1.742zm13.124-30.613a4.227 4.227 0 0 1 3.486 3.487c.1.607.62 1.048 1.236 1.048.615 0 1.135-.44 1.235-1.049a4.227 4.227 0 0 1 3.486-3.486c.608-.1 1.049-.62 1.049-1.235 0-.616-.441-1.136-1.049-1.236a4.227 4.227 0 0 1-3.486-3.486c-.1-.608-.62-1.05-1.236-1.05s-1.136.442-1.235 1.05a4.226 4.226 0 0 1-3.486 3.486c-.608.1-1.049.62-1.049 1.236s.441 1.135 1.049 1.235zm4.722-2.976a6.542 6.542 0 0 0 1.74 1.74 6.54 6.54 0 0 0-1.74 1.742 6.551 6.551 0 0 0-1.741-1.741 6.54 6.54 0 0 0 1.74-1.742zm4.721 15.558a4.227 4.227 0 0 1-3.486-3.485c-.1-.609-.62-1.05-1.235-1.05-.617 0-1.136.441-1.236 1.05a4.227 4.227 0 0 1-3.486 3.485c-.608.1-1.049.62-1.049 1.236s.441 1.136 1.049 1.236a4.227 4.227 0 0 1 3.486 3.486c.1.608.62 1.049 1.236 1.049.615 0 1.135-.441 1.235-1.05a4.226 4.226 0 0 1 3.486-3.485c.608-.1 1.049-.62 1.049-1.236s-.441-1.136-1.049-1.236zm-4.721 2.977a6.544 6.544 0 0 0-1.741-1.741 6.544 6.544 0 0 0 1.74-1.741 6.54 6.54 0 0 0 1.741 1.74 6.54 6.54 0 0 0-1.74 1.741zm4.721 12.077a4.227 4.227 0 0 1-3.486-3.486 1.247 1.247 0 0 0-1.235-1.05c-.617 0-1.136.442-1.236 1.05a4.227 4.227 0 0 1-3.486 3.486c-.608.1-1.049.62-1.049 1.235 0 .617.441 1.136 1.049 1.236a4.227 4.227 0 0 1 3.486 3.486c.1.608.62 1.05 1.236 1.05.615 0 1.135-.442 1.235-1.05a4.227 4.227 0 0 1 3.486-3.486c.608-.1 1.049-.62 1.049-1.235 0-.616-.441-1.136-1.049-1.236zm-4.721 2.977a6.544 6.544 0 0 0-1.741-1.742 6.544 6.544 0 0 0 1.74-1.74 6.54 6.54 0 0 0 1.741 1.74 6.54 6.54 0 0 0-1.74 1.742zm-29.968-21.39a1.154 1.154 0 0 0 0 2.306c.637 0 1.152-.516 1.152-1.152v-.003a1.15 1.15 0 0 0-1.152-1.151z" fill="#fff"/></svg>