<svg width="64" height="64" viewBox="0 0 64 64" fill="none" xmlns="http://www.w3.org/2000/svg"><path d="M22.62 62.26c.843.114 8.793.01 9.38 0 .587.01 8.536.114 9.378 0l-.129-.144a.739.739 0 0 0-.063-.086 2.547 2.547 0 0 0-.243-.242m-18.323.472l.061-.45a.33.33 0 0 1 .079.263.169.169 0 0 1-.012.041l.015-.023a.78.78 0 0 1 .048-.063c.06-.071.143-.151.243-.24m-.434.472c-.875-.119 0-.819 1.108-1.634l.297.403M22.62 62.26l.061-.451m.373-.021c.3.01.75.018 1.308.022.87.006 1.959.003 3.041-.003a568.08 568.08 0 0 0 4.588-.047h.017c.292.006 2.424.034 4.588.047 1.083.006 2.171.01 3.04.003a49.553 49.553 0 0 0 1.306-.022m-17.888 0c.235-.21.57-.465.97-.76m-.97.76a4.646 4.646 0 0 1-.367-.023l-.006.044m18.262-.021a14.92 14.92 0 0 0-.969-.76l.297-.401m.672 1.16l-.672-1.16m0 0l-.296.402a3.601 3.601 0 0 1-1.196-1.538 3.657 3.657 0 0 1-.222-.774 1.802 1.802 0 0 1-.008-.055l-.001-.009m1.723 1.974a3.134 3.134 0 0 1-1.227-2.04m-.496.066l.002.01.494-.077m-.496.067l-.348-2.226m.348 2.226l-.001-.008v-.009h-.001v-.001l.498-.049m0 0l-.844-2.159m0 0l-.066-.423.494-.077v.5H38.2zm-14.175 4.602l-1.344.78m1.344-.78l-1.344.78m2.272-3.225l.494.078.002-.011.001-.01v-.005l.001-.003v-.001l-.498-.048zm.418-2.157h.427l.067-.422-.494-.078v.5zm2.417-18.015c-2.652 1.097-5.863 1.298-8.224 1.185a3.237 3.237 0 0 0 1.31-.745c.415-.394.722-.9.994-1.512.27-.605.52-1.346.807-2.227.464-1.211 1.292-1.695 2.204-1.767.958-.075 2.055.306 2.948.945.902.647 1.483 1.475 1.558 2.196.036.344-.04.676-.266.99-.233.321-.646.652-1.331.935zm1.453-8.356l.01-.013.01-.013L47.07 4.727l.176.14c.434.347.712.593.878.749.083.078.138.133.17.166l.033.035.005.004v.001l.64.742.222-.95a1.318 1.318 0 0 1 .056-.142c.054-.114.152-.295.324-.523.343-.457.988-1.111 2.174-1.812l.977-.577c.12.068.235.146.343.233 1.413 1.138 1.488 3.713-.203 5.823l-21.35 23.23-.01.013-.01.012c-.203.251-.372.466-.518.652-.19.24-.34.43-.473.587a2.38 2.38 0 0 1-.257.27.525.525 0 0 1-.041.031 1.116 1.116 0 0 1-.168-.107 8.778 8.778 0 0 1-.429-.346 32.022 32.022 0 0 0-1.03-.83 8.86 8.86 0 0 1-.43-.345 1.106 1.106 0 0 1-.14-.141.536.536 0 0 1 .023-.047c.037-.07.102-.168.209-.308.124-.164.28-.351.474-.587.15-.182.324-.393.526-.644zm22.183-27.86l-.008-.001a3.2 3.2 0 0 1 .588.084l-.435-.067-.075.495.075-.495h-.005l-.01-.002-.029-.004a3.158 3.158 0 0 0-.101-.01zM30.232 33.422h-.002.002zm-2.238-1.803v.001-.001z" fill="#fff" stroke="#000"/><path d="M60.66 14.967v-.5h-9.6l2.61-2.84h7.77a2.06 2.06 0 0 1 2.06 2.06v37.12a2.06 2.06 0 0 1-2.06 2.06H2.56a2.06 2.06 0 0 1-2.06-2.06v-37.12a2.06 2.06 0 0 1 2.06-2.06h35.784l-2.001 2.84H3.34v31.72h57.32v-31.22z" fill="#fff" stroke="#000"/></svg>