<svg width="66" height="66" viewBox="0 0 66 66" fill="none" xmlns="http://www.w3.org/2000/svg"><path d="M27.838 7.734h10.313a1.29 1.29 0 0 0 0-2.578H27.838a1.289 1.289 0 1 0 0 2.578zm-7.734 5.156h2.578a1.289 1.289 0 1 0 0-2.578h-2.578a1.289 1.289 0 1 0 0 2.579zm20.625 0h5.156a1.29 1.29 0 0 0 0-2.578H40.73a1.289 1.289 0 1 0 0 2.579zm-12.891-2.577a1.289 1.289 0 1 0 0 2.578h7.735a1.29 1.29 0 0 0 0-2.579h-7.735zm-7.734 7.734h25.781a1.29 1.29 0 0 0 0-2.578H20.104a1.289 1.289 0 1 0 0 2.578zm25.781 28.359H20.104a1.289 1.289 0 1 0 0 2.578h25.781a1.29 1.29 0 0 0 0-2.578zm-15.468 5.157H20.104c-.711 0-1.29.578-1.29 1.289 0 .71.579 1.289 1.29 1.289h10.313c.71 0 1.29-.579 1.29-1.29 0-.71-.58-1.288-1.29-1.288zm5.155 0c-.71 0-1.29.578-1.29 1.289a1.29 1.29 0 0 0 2.58 0c0-.71-.579-1.29-1.29-1.29z" fill="#fff"/><path d="M64.71 20.625h-9.796V1.289C54.914.577 54.337 0 53.625 0h-41.25a1.29 1.29 0 0 0-1.29 1.29v19.335H1.29a1.29 1.29 0 0 0-1.289 1.29v20.624c0 .712.577 1.29 1.29 1.29h4.64V64.71c0 .712.577 1.289 1.289 1.289h51.56a1.29 1.29 0 0 0 1.29-1.29v-20.88h4.64c.712 0 1.289-.577 1.289-1.289V21.914a1.29 1.29 0 0 0-1.29-1.289zM13.665 2.578h38.672v18.047H13.664V2.578zm2.578 20.625h33.516v2.578H16.242v-2.578zm41.25 40.219H8.508V43.828h2.578v15.727c0 .712.577 1.289 1.289 1.289h41.25a1.29 1.29 0 0 0 1.29-1.29V43.829h2.577v19.594zM13.664 43.828h38.672v14.438H13.664V43.828zm49.758-2.578H2.578V23.203h11.086v3.867c0 .712.577 1.29 1.29 1.29h36.093a1.29 1.29 0 0 0 1.289-1.29v-3.867h11.086V41.25z" fill="#fff"/><path d="M18.047 37.383a1.289 1.289 0 1 1-2.578 0 1.289 1.289 0 0 1 2.578 0zm-5.157 0a1.289 1.289 0 1 1-2.577 0 1.289 1.289 0 0 1 2.578 0zm-5.156 0a1.289 1.289 0 1 1-2.578 0 1.289 1.289 0 0 1 2.578 0zm5.156-5.156a1.289 1.289 0 1 1-2.577 0 1.289 1.289 0 0 1 2.578 0zm-5.156 0a1.289 1.289 0 1 1-2.577 0 1.289 1.289 0 0 1 2.577 0zm10.313 0a1.289 1.289 0 1 1-2.578 0 1.289 1.289 0 0 1 2.578 0zm36.351 6.445h5.157a1.29 1.29 0 0 0 1.289-1.29v-2.577a3.871 3.871 0 0 0-3.867-3.867 3.871 3.871 0 0 0-3.868 3.867v2.578a1.29 1.29 0 0 0 1.29 1.289zm1.29-3.867a1.29 1.29 0 0 1 2.578 0v1.289h-2.578v-1.29z" fill="#fff"/></svg>