<svg width="62" height="62" viewBox="0 0 62 62" fill="none" xmlns="http://www.w3.org/2000/svg"><path d="M9.3 16.017H5.167a1.033 1.033 0 0 0 0 2.066H9.3a1.033 1.033 0 0 0 0-2.066z" fill="#fff"/><path d="M58.9 10.85h-3.1a5.173 5.173 0 0 0-5.167-5.167H49.6V4.65a3.103 3.103 0 0 0-3.1-3.1h-31a3.103 3.103 0 0 0-3.1 3.1v1.033h-1.033A5.173 5.173 0 0 0 6.2 10.85H3.1a3.103 3.103 0 0 0-3.1 3.1v17.567a2.07 2.07 0 0 0 2.067 2.067h2.066v19.823a3.095 3.095 0 0 0-2.066 2.91v3.1c0 .57.461 1.033 1.032 1.033h8.268c.57 0 1.033-.462 1.033-1.032v-3.101a3.095 3.095 0 0 0-2.067-2.91V51.15h6.2v1.033a3.103 3.103 0 0 0 3.1 3.1h22.734a3.103 3.103 0 0 0 3.1-3.1V51.15h6.2v2.257a3.095 3.095 0 0 0-2.067 2.91v3.1c0 .57.462 1.033 1.032 1.033H58.9c.57 0 1.033-.462 1.033-1.032v-3.101a3.095 3.095 0 0 0-2.066-2.91V33.583h2.066A2.07 2.07 0 0 0 62 31.517V13.95a3.103 3.103 0 0 0-3.1-3.1zm-44.433-6.2c0-.57.463-1.033 1.033-1.033h31c.57 0 1.033.463 1.033 1.033v1.033H14.467V4.65zm-4.134 53.733h-6.2v-2.066c0-.57.463-1.033 1.034-1.034H9.3c.57 0 1.033.463 1.033 1.034v2.066zM6.2 53.217V33.583h2.067v19.634H6.2zm-4.133-21.7V13.95c0-.57.463-1.033 1.033-1.033h8.267c.57 0 1.033.463 1.033 1.033v6.204l.002 10.32-.002.01.002.009v1.024H2.067zm14.466 17.566h-6.2v-2.066h6.2v2.066zm0-4.133h-6.2V33.583H12.4a2.07 2.07 0 0 0 2.067-2.066h2.066V44.95zm0-15.5h-2.066v-8.267h2.066v8.267zM43.4 52.183c0 .57-.463 1.033-1.033 1.034H19.633c-.57 0-1.033-.463-1.033-1.034v-31h24.8v31zM14.467 19.117V13.95a3.103 3.103 0 0 0-3.1-3.1h-3.1a3.103 3.103 0 0 1 3.1-3.1h39.266a3.103 3.103 0 0 1 3.1 3.1h-3.1a3.103 3.103 0 0 0-3.1 3.1v5.167H14.467zm33.066 12.4a2.07 2.07 0 0 0 2.067 2.067h2.067V44.95h-6.2V31.517h2.066zm-2.066-2.067v-8.267h2.066v8.267h-2.066zm0 19.633v-2.066h6.2v2.066h-6.2zm12.4 9.3h-6.2v-2.066c0-.57.462-1.033 1.033-1.034h4.133c.57 0 1.033.463 1.034 1.034v2.066zm-4.134-5.166V33.583H55.8v19.634h-2.067zm3.1-21.7H49.6V13.95c0-.57.463-1.033 1.033-1.033H58.9c.57 0 1.033.463 1.033 1.033l.002 17.567h-3.102z" fill="#fff"/><path d="M56.834 16.017H52.7a1.033 1.033 0 0 0 0 2.066h4.134a1.033 1.033 0 0 0 0-2.066zM44.433 10.85H17.567a1.033 1.033 0 1 0 0 2.067h26.866a1.033 1.033 0 1 0 0-2.067zm-4.132 16.533H21.7c-.571 0-1.034.462-1.034 1.032V44.95c0 .57.462 1.033 1.032 1.033H40.3c.57 0 1.033-.461 1.034-1.032V28.417c0-.57-.462-1.033-1.033-1.034zM39.267 38.75h-4.133a1.033 1.033 0 0 0 0 2.067h4.133v3.1H27.9v-3.1H31a1.033 1.033 0 1 0 0-2.067h-3.1v-1.033a1.033 1.033 0 1 0-2.066 0v6.2h-3.1V29.45h3.1v4.133a1.033 1.033 0 1 0 2.066 0V29.45h6.294a6.206 6.206 0 0 0 5.073 5.073v4.227zm0-6.347a4.126 4.126 0 0 1-2.953-2.953h2.953v2.953z" fill="#fff"/></svg>