<svg width="64" height="64" viewBox="0 0 64 64" fill="none" xmlns="http://www.w3.org/2000/svg"><path d="M63.928 25.243c-.01-.026-.013-.051-.024-.076a1.058 1.058 0 0 0-.181-.285l-9.08-9.987a6.414 6.414 0 0 0-4.736-2.095H44.8V2.133A2.133 2.133 0 0 0 42.667 0H21.333A2.133 2.133 0 0 0 19.2 2.133V12.8h-5.107a6.414 6.414 0 0 0-4.736 2.095l-9.08 9.987a1.06 1.06 0 0 0-.181.285c-.01.024-.015.05-.023.076a1.026 1.026 0 0 0-.061.3C.01 25.562 0 25.58 0 25.6v20.267a6.406 6.406 0 0 0 6.4 6.4h7.467l-3.84 5.12a2.133 2.133 0 0 0 1.706 3.413h6.198l-.084.184A2.133 2.133 0 0 0 19.79 64h24.42a2.133 2.133 0 0 0 1.943-3.016l-.085-.184h6.199a2.133 2.133 0 0 0 1.706-3.413l-3.84-5.12H57.6a6.406 6.406 0 0 0 6.4-6.4V25.6c0-.02-.01-.037-.012-.058a1.027 1.027 0 0 0-.06-.3zM21.333 2.133h21.334V19.2H21.333V2.133zM10.936 16.331a4.273 4.273 0 0 1 3.157-1.398H19.2V19.2h-1.067a1.067 1.067 0 0 0 0 2.133h27.734a1.067 1.067 0 1 0 0-2.133H44.8v-4.267h5.107a4.273 4.273 0 0 1 3.158 1.398l7.457 8.202H3.478l7.457-8.202zM48 49.423l-2.133-2.845V44.8a3.2 3.2 0 0 0-3.2-3.2H21.333a3.2 3.2 0 0 0-3.2 3.2v1.778L16 49.423V41.6a7.475 7.475 0 0 1 7.467-7.467h17.066A7.475 7.475 0 0 1 48 41.6v7.823zm-4.267-3.556H20.267V44.8c0-.59.477-1.067 1.066-1.067h21.334c.589 0 1.066.478 1.066 1.067v1.067zm-23.943 16l4.364-9.6h15.692l4.368 9.6H19.79zm25.309-3.2l-3.582-7.882-.012-.025a1.042 1.042 0 0 0-.2-.288c-.022-.023-.047-.041-.07-.062a1.066 1.066 0 0 0-.33-.2 1.068 1.068 0 0 0-.372-.077H23.467a1.068 1.068 0 0 0-.469.12 1.07 1.07 0 0 0-.231.155c-.023.022-.05.04-.072.063a1.04 1.04 0 0 0-.199.287l-.012.026-3.583 7.883h-7.168l8-10.667h24.534l8 10.667h-7.168zm16.768-12.8a4.267 4.267 0 0 1-4.267 4.266h-7.467V41.6a9.612 9.612 0 0 0-9.6-9.6H23.467a9.612 9.612 0 0 0-9.6 9.6v8.533H6.4a4.267 4.267 0 0 1-4.267-4.266v-19.2h59.734v19.2z" fill="#fff"/><path d="M56.533 36.267a3.2 3.2 0 1 0 0-6.4 3.2 3.2 0 0 0 0 6.4zm0-4.267a1.067 1.067 0 1 1 0 2.133 1.067 1.067 0 0 1 0-2.133zm0 8.533a1.067 1.067 0 1 0 0-2.133 1.067 1.067 0 0 0 0 2.133zm0 3.2a1.067 1.067 0 1 0 0-2.133 1.067 1.067 0 0 0 0 2.133zm0 3.2a1.067 1.067 0 1 0 0-2.133 1.067 1.067 0 0 0 0 2.133zm-28.8 9.6h8.534a1.067 1.067 0 1 0 0-2.133h-8.534a1.067 1.067 0 0 0 0 2.133zM38.4 57.6H25.6a1.067 1.067 0 1 0 0 2.133h12.8a1.067 1.067 0 0 0 0-2.133zM5.333 32c.59 0 1.067-.478 1.067-1.067v-1.066a1.067 1.067 0 0 0-2.133 0v1.066c0 .59.477 1.067 1.066 1.067zm0 10.667c.59 0 1.067-.478 1.067-1.067v-6.4a1.067 1.067 0 0 0-2.133 0v6.4c0 .59.477 1.067 1.066 1.067z" fill="#fff"/></svg>