<svg width="63" height="63" viewBox="0 0 63 63" fill="none" xmlns="http://www.w3.org/2000/svg"><g clip-path="url(#a)" fill="#fff"><path d="M61.894 6.696l-.604-1.34-8.116 8.117a2.58 2.58 0 0 1-4.398-1.822c0-.688.267-1.334.754-1.821l8.116-8.116-1.34-.606C54.06.092 51.491-.645 47.947.84c-4.545 1.898-7.41 6.067-7.297 10.619.024.975.18 1.946.465 2.897l-26.76 26.76a11.06 11.06 0 0 0-3.175-.47C5.017 40.646.002 45.66.002 51.824.002 57.985 5.017 63 11.18 63c6.162 0 11.177-5.015 11.177-11.177 0-1.068-.158-2.133-.469-3.175l26.76-26.76c.949.284 1.92.44 2.895.465 4.54.126 8.721-2.754 10.62-7.298 1.482-3.545.746-6.112-.27-8.36zM31.502 28.452a3.052 3.052 0 0 1 3.048 3.049 3.052 3.052 0 0 1-3.048 3.048 3.052 3.052 0 0 1-3.049-3.048 3.052 3.052 0 0 1 3.049-3.049zm-.382 8.09l-4.699 4.699-4.66-4.66 4.698-4.698a5.056 5.056 0 0 0 4.66 4.66zm.765-10.083l4.697-4.699 4.66 4.66-4.699 4.699a5.057 5.057 0 0 0-4.658-4.66zM19.772 48.718a9.125 9.125 0 0 1 .553 3.105c0 5.043-4.104 9.145-9.145 9.145-5.043 0-9.145-4.102-9.145-9.145 0-5.043 4.102-9.145 9.145-9.145a9.1 9.1 0 0 1 3.103.553l.608.221 5.434-5.434 4.66 4.66-5.434 5.433.22.607zm40.517-34.446c-1.574 3.766-4.985 6.147-8.695 6.048a9.08 9.08 0 0 1-2.877-.548l-.607-.22-5.431 5.431-4.66-4.66 5.43-5.43-.218-.609a9.107 9.107 0 0 1-.55-2.876c-.092-3.708 2.283-7.121 6.048-8.695 2.095-.875 3.704-.833 5.344-.303l-5.98 5.982a4.583 4.583 0 0 0-1.35 3.26 4.613 4.613 0 0 0 4.609 4.607c1.232 0 2.389-.48 3.259-1.349l5.98-5.982c.529 1.64.573 3.25-.302 5.344z"/><path d="M11.18 44.71c-3.923 0-7.114 3.192-7.114 7.113 0 3.921 3.19 7.112 7.113 7.112 3.922 0 7.113-3.19 7.113-7.112 0-3.921-3.19-7.113-7.113-7.113zm0 12.193a5.086 5.086 0 0 1-5.081-5.08 5.086 5.086 0 0 1 5.08-5.08c2.801 0 5.08 2.279 5.08 5.08s-2.279 5.08-5.08 5.08z"/></g><defs><clipPath id="a"><path fill="#fff" d="M0 0h63v63H0z"/></clipPath></defs></svg>