<svg width="296" height="1422" viewBox="0 0 296 1422" fill="none" xmlns="http://www.w3.org/2000/svg"><path d="M137 1377.54H36.56v38.34H11v-104.4h25.56v38.34H137v27.72zM11 1181.62h126v27.36H54.38l82.62 55.08v26.1H11v-27.36h82.62L11 1207.36v-25.74zm126-30.33H11v-105.12h126v27.72H36.02v49.68H137v27.72zm-16.74-244.428c12.6 12.72 18.9 28.68 18.9 47.88 0 19.2-6.3 35.16-18.9 47.878-12.6 12.6-28.02 18.9-46.26 18.9-18.12 0-33.48-6.36-46.08-19.08-12.72-12.838-19.08-28.858-19.08-48.058s6.3-35.1 18.9-47.7c12.6-12.72 28.02-19.08 46.26-19.08 18.12 0 33.54 6.42 46.26 19.26zm-18.18 74.88c7.68-7.2 11.52-16.32 11.52-27.36s-3.78-20.1-11.34-27.18c-7.68-7.08-17.1-10.62-28.26-10.62-11.04 0-20.4 3.6-28.08 10.8-7.68 7.2-11.52 16.32-11.52 27.36s3.84 20.1 11.52 27.18c7.56 7.08 16.92 10.62 28.08 10.62 11.04 0 20.4-3.6 28.08-10.8zM36.02 835.293H137v27.72H11v-88.02h25.02v60.3zM137 755.435H11v-51.48c0-14.88 4.02-26.64 12.06-35.28 8.04-8.64 18.66-12.96 31.86-12.96 14.04 0 24.96 4.8 32.76 14.4 7.68 9.6 11.52 21.78 11.52 36.54v21.06H137v27.72zm-62.46-27.72v-21.96c0-6.84-1.8-12.18-5.4-16.02-3.6-3.96-8.28-5.94-14.04-5.94-6.12 0-10.8 1.98-14.04 5.94-3.36 3.96-5.04 9.48-5.04 16.56v21.42h38.52zM137 646L10.1 592v-25.56l126.9-54v28.98l-28.26 11.52v53.28L137 617.74V646zm-52.74-49.68v-33.48L43.4 579.58l40.86 16.74zM42.32 410.373h61.38c0-10.2-2.76-18.36-8.28-24.48-5.64-6.24-13.14-9.36-22.5-9.36-9.24 0-16.62 3.12-22.14 9.36-5.64 6.12-8.46 14.28-8.46 24.48zm99.72 0v27.72h-13.68c0 19.08-5.22 34.26-15.66 45.54-10.56 11.28-24 16.92-40.32 16.92-16.08 0-29.22-5.64-39.42-16.92-10.2-11.28-15.3-26.46-15.3-45.54H6.14v-27.72h11.52c0-18.96 5.16-34.08 15.48-45.36 10.2-11.4 23.34-17.1 39.42-17.1 16.2 0 29.58 5.64 40.14 16.92 10.44 11.28 15.66 26.46 15.66 45.54h13.68zm-38.34 27.72H42.32c0 10.2 2.82 18.42 8.46 24.66 5.52 6.24 12.9 9.36 22.14 9.36 9.36 0 16.86-3.12 22.5-9.36 5.52-6.24 8.28-14.46 8.28-24.66zM11 216.758h126v27.36H54.38l82.62 55.08v26.1H11v-27.36h82.62L11 242.498v-25.74zm0-130.047h126v27.72H96.68v21.78l40.32 27v32.4l-45-30.78c-6.72 18-19.86 27-39.42 27-12.96 0-23.1-4.2-30.42-12.6-7.44-8.52-11.16-20.16-11.16-34.92v-57.6zm61.2 55.8v-28.08H36.02v27.54c0 6.84 1.56 12.18 4.68 16.02 3.12 3.84 7.68 5.76 13.68 5.76 5.4 0 9.72-1.86 12.96-5.58 3.24-3.84 4.86-9.06 4.86-15.66zM182 364.06v-5.39h-9.835v-9.94H182v-5.39h-24.5v5.39h9.695v9.94H157.5v5.39H182zm0-24.492v-5.495l-5.495-2.24v-10.36l5.495-2.24v-5.635l-24.675 10.5v4.97l24.675 10.5zm-10.255-9.66l-7.945-3.255 7.945-3.255v6.51zM157.5 276.182v5.39h19.635v8.75H157.5v5.39h19.635v8.715H157.5v5.39H182v-33.635h-24.5zm0-26.982v5.005l16.065 10.78H157.5v5.32H182v-5.075l-16.065-10.71H182v-5.32h-24.5zm12.95-26.75l-12.95 6.65v6.02l18.34-9.8c1.505.98 1.96 2.1 1.96 3.08 0 .945-.21 1.925-.805 2.905l3.955 2.1c.875-1.54 1.435-3.185 1.435-5.285 0-3.43-1.68-5.88-5.95-8.015L157.5 210.69v5.845l12.95 5.915zm11.97-26.823c0-4.725-1.47-7.525-4.165-10.045l-3.675 3.43c1.75 1.925 2.87 3.64 2.87 6.44 0 4.2-3.5 7.105-7.7 7.105-4.27 0-7.7-2.975-7.7-7.105 0-2.8 1.015-4.41 2.73-6.3l-3.71-3.22c-2.24 2.275-3.99 4.865-3.99 9.485 0 7.525 5.705 12.775 12.67 12.775 7.105 0 12.67-5.355 12.67-12.565zm-24.92-17.615h5.075c13.195 0 15.05 1.645 15.05 4.55 0 .35-.035.595-.07.84l4.445.35c.175-.665.315-1.96.315-2.835 0-5.6-3.675-7.945-18.095-7.945h-1.855v-7.07H182v-5.39h-24.5v17.5zm12.95-33.731l-12.95 6.65v6.02l18.34-9.8c1.505.98 1.96 2.1 1.96 3.08 0 .945-.21 1.925-.805 2.905l3.955 2.1c.875-1.54 1.435-3.185 1.435-5.285 0-3.43-1.68-5.88-5.95-8.015l-18.935-9.415v5.845l12.95 5.915zm-8.085-20.733v-11.725H157.5v17.115H182v-5.39h-19.635zM157.5 86.915v5.005l16.065 10.78H157.5v5.32H182v-5.075l-16.065-10.71H182v-5.32h-24.5z" fill="#fff" fill-opacity=".2"/><path fill="#8D00C9" d="M294 496h2v561h-2z"/><path fill="#C4C4C4" d="M294 1095h2v175h-2z"/><path fill="#8D00C9" d="M232 823h2v561h-2z"/><path fill="#C4C4C4" d="M294 0h2v408h-2zm-62 663h2v138h-2z"/><path fill="#8D00C9" d="M232 364h2v227h-2z"/></svg>