<svg width="107" height="108" viewBox="0 0 107 108" fill="none" xmlns="http://www.w3.org/2000/svg"><g clip-path="url(#a)" fill="#fff"><path d="M107 53.717c0-29.5-24-53.5-53.5-53.5A53.342 53.342 0 0 0 27.252 7.12H20.71V.217H10.355v21.895C3.59 31.328 0 42.235 0 53.717c0 29.5 24 53.5 53.5 53.5 6.574 0 12.99-1.182 19.074-3.505a22.283 22.283 0 0 0 11.99 3.505 22.439 22.439 0 0 0 14.656-5.447l-2.256-2.613a18.98 18.98 0 0 1-12.4 4.608c-10.466 0-18.983-8.517-18.983-18.984 0-10.467 8.516-18.984 18.983-18.984 10.468 0 18.984 8.517 18.984 18.984 0 4.375-1.446 8.488-4.185 11.893l2.691 2.164A22.511 22.511 0 0 0 107 84.781c0-4.414-1.3-8.522-3.509-11.996A53.27 53.27 0 0 0 107 53.717zM27.613 17.475h3.451v24.161h-3.451V17.475zm-6.903-6.903h3.451v31.064H20.71V10.572zm-6.904-6.904h3.452v37.968h-3.451V3.668zm37.968 100.054c-26.225-.896-47.384-22.054-48.28-48.28h48.28v48.28zm0-51.731H3.521c.281-8.401 2.614-16.43 6.834-23.587v16.684h37.968V27.83h-6.904v-6.903h-6.903v-6.904h-6.903v-3.12c7.302-4.425 15.6-6.88 24.161-7.174V51.99zM34.516 41.636V24.378h3.452v17.258h-3.452zm6.903 0V31.281h3.452v10.355h-3.452zm62.086 10.355H88.731l12.691-12.692a49.755 49.755 0 0 1 2.083 12.692zM94.809 25.5L75.533 44.775l2.44 2.44L96.7 28.492a49.952 49.952 0 0 1 3.47 7.18l-16.32 16.32H73.198l2.232-2.231-2.44-2.44-4.672 4.671H57.666l32.399-32.399a50.635 50.635 0 0 1 4.744 5.908zM55.226 3.712c4.397.15 8.651.864 12.691 2.083L55.226 18.486V3.712zm0 35.187L76.2 17.925l-2.44-2.44-18.534 18.533V23.367l16.319-16.32a49.625 49.625 0 0 1 7.181 3.471l-2.78 2.78 2.44 2.44 3.33-3.33a50.458 50.458 0 0 1 5.908 4.744L55.226 49.551V38.899zm29.338 23.447c-12.37 0-22.435 10.065-22.435 22.435 0 6.491 2.787 12.328 7.207 16.428a49.738 49.738 0 0 1-14.11 2.516V55.443h48.283a49.79 49.79 0 0 1-2.522 14.105c-4.1-4.418-9.935-7.202-16.422-7.202z"/><path d="M41.932 62.85l-20.71 20.71 2.441 2.441 20.71-20.71-2.44-2.44zm-2.238 13.302a5.184 5.184 0 0 0-5.178 5.178 5.184 5.184 0 0 0 5.178 5.177 5.184 5.184 0 0 0 5.177-5.177 5.184 5.184 0 0 0-5.178-5.178zm0 6.904a1.728 1.728 0 0 1-1.726-1.726c0-.953.775-1.726 1.725-1.726a1.727 1.727 0 0 1 .001 3.452zm-13.807-20.71a5.184 5.184 0 0 0-5.177 5.177 5.184 5.184 0 0 0 5.177 5.178 5.184 5.184 0 0 0 5.178-5.178 5.184 5.184 0 0 0-5.178-5.177zm0 6.903c-.95 0-1.726-.773-1.726-1.726 0-.952.775-1.726 1.726-1.726s1.726.774 1.726 1.726c0 .953-.775 1.726-1.726 1.726zm58.677 13.806a3.455 3.455 0 0 1-3.451-3.451 3.455 3.455 0 0 1 3.451-3.452 3.455 3.455 0 0 1 3.452 3.452h3.452c0-3.208-2.21-5.887-5.178-6.658v-3.697h-3.45v3.697c-2.969.771-5.178 3.45-5.178 6.658a6.91 6.91 0 0 0 6.903 6.903 3.455 3.455 0 0 1 3.452 3.452 3.455 3.455 0 0 1-3.452 3.451 3.455 3.455 0 0 1-3.451-3.451H77.66c0 3.208 2.21 5.886 5.178 6.658v3.697h3.451v-3.697c2.969-.772 5.178-3.45 5.178-6.658a6.91 6.91 0 0 0-6.904-6.904zm15.533 0h-3.452v3.452h3.452v-3.452zm-27.613 0h-3.452v3.452h3.452v-3.452z"/></g><defs><clipPath id="a"><path fill="#fff" transform="translate(0 .217)" d="M0 0h107v107H0z"/></clipPath></defs></svg>