<svg width="112" height="112" viewBox="0 0 112 112" fill="none" xmlns="http://www.w3.org/2000/svg"><path d="M15.187 62.64c-1.049 0-1.899.85-1.899 1.899v7.593a1.898 1.898 0 0 0 3.797 0v-7.593c0-1.048-.85-1.898-1.899-1.898zm7.593 3.797c-1.049 0-1.899.85-1.899 1.898v7.593a1.898 1.898 0 0 0 3.796 0v-7.593c0-1.048-.85-1.898-1.898-1.898zm69.234 10.188a1.898 1.898 0 0 0-2.126 3.143c5.217 3.513 6.6 10.59 3.086 15.808-3.513 5.218-10.59 6.6-15.808 3.087-5.218-3.513-6.6-10.591-3.086-15.808a11.39 11.39 0 0 1 9.441-5.029 1.898 1.898 0 0 0 0-3.796c-8.386.002-15.184 6.802-15.182 15.188.001 8.387 6.801 15.185 15.188 15.183 8.387-.002 15.184-6.802 15.183-15.188a15.185 15.185 0 0 0-6.696-12.588z" fill="#fff"/><path d="M105.405 82.91a22.768 22.768 0 0 0-12.393-14.385v-41.95c0-.671-.354-1.293-.932-1.634L50.32.264a1.898 1.898 0 0 0-1.932 0L6.628 24.941c-.04.023-.069.057-.107.083-.038.027-.074.057-.112.088-.165.13-.306.286-.42.463 0 .013-.022.02-.03.034v.013a1.88 1.88 0 0 0-.214.62c0 .058-.017.111-.023.168-.006.057-.026.108-.026.165v49.353c0 .671.354 1.293.932 1.634l41.76 24.677c.05.024.101.046.154.064.051.026.105.049.159.069.418.174.888.174 1.306 0a1.57 1.57 0 0 0 .161-.069c.05-.022.103-.036.152-.064l11.334-6.699c3.488 12.082 16.109 19.048 28.19 15.561 12.082-3.488 19.049-16.11 15.561-28.19zM49.354 4.102l9.87 5.834-14.635 8.648a1.9 1.9 0 0 0 1.933 3.27l16.436-9.705 9.87 5.833L34.8 40.447l-9.87-5.833 15.901-9.396a1.9 1.9 0 1 0-1.932-3.27l-17.7 10.46-9.873-5.833L49.354 4.102zM32.902 43.737V56.41l-9.806-5.795V37.94l9.806 5.796zm28.591 39.61a22.695 22.695 0 0 0-.75 5.868c0 .795.042 1.589.125 2.379l-9.616 5.685v-6.165a1.898 1.898 0 0 0-3.796 0v6.165L9.492 74.846V29.903l9.808 5.795v16c0 .672.353 1.294.932 1.636l13.602 8.039a1.898 1.898 0 0 0 2.864-1.634v-13.76l10.758 6.356v31.186a1.898 1.898 0 0 0 3.796 0V52.335l34.403-20.33a1.899 1.899 0 0 0-1.933-3.268l-34.368 20.31-10.82-6.394L76.563 20.18l12.653 7.477v39.54C77.1 64 64.688 71.231 61.493 83.346zm22.028 24.85c-10.483 0-18.982-8.498-18.982-18.982 0-10.483 8.499-18.982 18.982-18.982 10.484 0 18.982 8.499 18.982 18.982-.011 10.479-8.503 18.971-18.982 18.982z" fill="#fff"/><path d="M90.511 84.077a1.898 1.898 0 0 0-2.637 0l-7.2 7.2-1.505-1.505a1.898 1.898 0 0 0-2.684 2.683l2.847 2.848a1.898 1.898 0 0 0 2.684 0l8.542-8.542a1.898 1.898 0 0 0-.047-2.684z" fill="#fff"/></svg>