<svg width="102" height="102" viewBox="0 0 102 102" fill="none" xmlns="http://www.w3.org/2000/svg"><g clip-path="url(#a)" fill="#fff"><path d="M1.494 74.474c.825 0 1.494-.668 1.494-1.494V29.463h88.28v16.423a1.494 1.494 0 1 0 2.988 0V16.358c0-5.01-4.075-9.085-9.084-9.085h-3.918v-1.85a3.633 3.633 0 0 0-3.63-3.63H74.85a3.634 3.634 0 0 0-3.63 3.63v1.85h-9.91v-1.85a3.633 3.633 0 0 0-3.63-3.63h-2.775c-2 0-3.629 1.628-3.629 3.63v1.85h-9.91v-1.85a3.633 3.633 0 0 0-3.63-3.63h-2.775a3.633 3.633 0 0 0-3.63 3.63v1.85h-9.909v-1.85a3.633 3.633 0 0 0-3.63-3.63h-2.774a3.633 3.633 0 0 0-3.63 3.63v1.85H9.085C4.075 7.273 0 11.348 0 16.358V72.98c0 .826.67 1.494 1.494 1.494zM74.208 5.422c0-.353.288-.64.641-.64h2.776a.64.64 0 0 1 .64.64v7.26a.642.642 0 0 1-.64.64H74.85a.642.642 0 0 1-.64-.64v-7.26zm-19.944 0c0-.353.288-.64.641-.64h2.776c.353 0 .641.287.641.64v7.26a.642.642 0 0 1-.641.64h-2.776a.641.641 0 0 1-.64-.64v-7.26zm-19.944 0c0-.353.288-.64.641-.64h2.776c.353 0 .641.287.641.64v7.26a.642.642 0 0 1-.64.64H34.96a.642.642 0 0 1-.64-.64v-7.26zm-19.944 0c0-.353.288-.64.642-.64h2.776a.64.64 0 0 1 .64.64v7.26a.642.642 0 0 1-.64.64h-2.776a.642.642 0 0 1-.642-.64v-7.26zm-5.291 4.84h2.303v2.42a3.633 3.633 0 0 0 3.63 3.629h2.776c2 0 3.628-1.628 3.628-3.63v-2.42h9.91v2.42a3.633 3.633 0 0 0 3.63 3.63h2.775a3.633 3.633 0 0 0 3.63-3.63v-2.42h9.91v2.42a3.633 3.633 0 0 0 3.629 3.63h2.776c2 0 3.628-1.628 3.628-3.63v-2.42h9.91v2.42a3.633 3.633 0 0 0 3.63 3.63h2.775a3.633 3.633 0 0 0 3.629-3.63v-2.42h3.918a6.103 6.103 0 0 1 6.097 6.097v10.116H2.989V16.358a6.103 6.103 0 0 1 6.096-6.097zm7.831 78.108H3.887a.9.9 0 0 1-.899-.899v-7.682a1.494 1.494 0 1 0-2.988 0v7.682a3.892 3.892 0 0 0 3.887 3.887h13.029a1.494 1.494 0 0 0 0-2.988z"/><path d="M16.866 33.82h-5.194a1.495 1.495 0 0 0 0 2.988h5.194a1.494 1.494 0 1 0 0-2.988zm10.767 2.988h5.194a1.494 1.494 0 1 0 0-2.988h-5.194a1.495 1.495 0 0 0 0 2.988zm15.961 0h5.193a1.494 1.494 0 1 0 0-2.988h-5.193a1.494 1.494 0 1 0 0 2.988zm15.96 0h5.194a1.494 1.494 0 1 0 0-2.988h-5.194a1.495 1.495 0 0 0 0 2.988zm21.154-2.988h-5.193a1.494 1.494 0 1 0 0 2.988h5.193a1.494 1.494 0 1 0 0-2.988zm-63.842 7.513h-5.194a1.494 1.494 0 1 0 0 2.989h5.194a1.494 1.494 0 1 0 0-2.989zm10.767 2.989h5.194a1.494 1.494 0 1 0 0-2.989h-5.194a1.494 1.494 0 1 0 0 2.989zm15.961 0h5.193a1.494 1.494 0 1 0 0-2.989h-5.193a1.494 1.494 0 1 0 0 2.989zm15.96 0h5.194a1.494 1.494 0 1 0 0-2.989h-5.194a1.494 1.494 0 1 0 0 2.989zm21.154-2.989h-5.193a1.494 1.494 0 1 0 0 2.989h5.193a1.494 1.494 0 1 0 0-2.989zM27.67 73.654l7.682 7.683a5.844 5.844 0 0 0 4.16 1.722c1.572 0 3.05-.611 4.16-1.722l21.04-21.039a5.89 5.89 0 0 0 0-8.321 5.89 5.89 0 0 0-8.322 0L39.512 68.854l-3.522-3.521a5.89 5.89 0 0 0-8.321 0 5.891 5.891 0 0 0 0 8.321zm2.112-6.208a2.887 2.887 0 0 1 2.048-.847c.742 0 1.483.282 2.047.847l4.578 4.578c.584.584 1.53.584 2.113 0L58.503 54.09a2.899 2.899 0 0 1 4.094 0 2.9 2.9 0 0 1 0 4.095L41.56 79.223a2.876 2.876 0 0 1-2.048.848c-.773 0-1.5-.301-2.047-.848l-7.683-7.682a2.898 2.898 0 0 1 0-4.095z"/><path d="M94.256 64.618V52.697a1.494 1.494 0 1 0-2.988 0v10.017a19.697 19.697 0 0 0-9.091-2.212c-10.93 0-19.823 8.893-19.823 19.823 0 2.863.61 5.585 1.707 8.046H23.724a1.494 1.494 0 1 0 0 2.988h41.992c3.562 5.297 9.611 8.789 16.46 8.789 10.931 0 19.824-8.892 19.824-19.823 0-6.387-3.038-12.078-7.744-15.706zm-12.08 32.54c-9.282 0-16.834-7.55-16.834-16.834 0-9.283 7.553-16.835 16.835-16.835s16.835 7.552 16.835 16.835c0 9.283-7.553 16.835-16.835 16.835z"/><path d="M82.177 65.648c-8.093 0-14.676 6.584-14.676 14.676C67.501 88.417 74.085 95 82.177 95s14.675-6.583 14.675-14.676c0-8.092-6.583-14.676-14.675-14.676zm1.338 26.285c.099-.2.156-.425.156-.663v-1.82a1.495 1.495 0 0 0-2.988 0v1.82c0 .238.057.463.156.663-5.377-.616-9.655-4.894-10.27-10.271.199.1.424.156.662.156h1.82a1.493 1.493 0 1 0 0-2.988h-1.82c-.238 0-.463.058-.662.156.615-5.377 4.893-9.655 10.27-10.27-.1.2-.156.424-.156.662v1.82a1.494 1.494 0 1 0 2.988 0v-1.82a1.49 1.49 0 0 0-.156-.662c5.377.615 9.655 4.893 10.27 10.27a1.49 1.49 0 0 0-.662-.156h-1.82a1.494 1.494 0 1 0 0 2.988h1.82c.238 0 .462-.057.662-.156-.616 5.377-4.893 9.655-10.27 10.27z"/><path d="M85.47 78.83h-1.799v-1.532a1.494 1.494 0 0 0-2.988 0v3.026c0 .826.668 1.494 1.494 1.494h3.293a1.494 1.494 0 1 0 0-2.988z"/></g><defs><clipPath id="a"><path fill="#fff" d="M0 0h102v102H0z"/></clipPath></defs></svg>