<svg width="111" height="112" viewBox="0 0 111 112" fill="none" xmlns="http://www.w3.org/2000/svg"><g clip-path="url(#a)" fill="#fff"><path d="M104.496.217H6.504A6.511 6.511 0 0 0 0 6.72v72.844a6.511 6.511 0 0 0 6.504 6.503H60.97a20.489 20.489 0 0 0 10.545 11.724v11.257a2.169 2.169 0 0 0 3.31 1.843l5.39-3.34 5.39 3.34a2.171 2.171 0 0 0 2.196.051 2.169 2.169 0 0 0 1.114-1.894V97.792A20.489 20.489 0 0 0 99.46 86.068h5.036A6.51 6.51 0 0 0 111 79.564V6.721a6.51 6.51 0 0 0-6.504-6.504zM84.579 105.155l-3.223-1.996a2.169 2.169 0 0 0-2.283 0l-3.222 1.996v-5.882a20.42 20.42 0 0 0 8.728 0v5.882zm-4.364-9.746c-8.847 0-16.043-7.196-16.043-16.043 0-8.846 7.197-16.043 16.043-16.043s16.043 7.197 16.043 16.043c0 8.847-7.197 16.043-16.043 16.043zm26.449-15.845a2.17 2.17 0 0 1-2.168 2.168h-4.04a20.75 20.75 0 0 0 .138-2.366c0-4.698-1.6-9.029-4.28-12.48a6.942 6.942 0 0 1 2.112-.33c1.197 0 2.168-.97 2.168-2.167V21.897c0-1.198-.97-2.168-2.168-2.168a6.945 6.945 0 0 1-6.938-6.938c0-1.197-.97-2.168-2.168-2.168H64.402a2.168 2.168 0 1 0 0 4.336h22.96a11.307 11.307 0 0 0 8.896 8.896V62.43a11.21 11.21 0 0 0-3.183 1.14 20.279 20.279 0 0 0-12.86-4.582c-8.383 0-15.6 5.09-18.724 12.34H23.639a11.307 11.307 0 0 0-8.897-8.897V23.855a11.307 11.307 0 0 0 8.896-8.896h23.42a2.168 2.168 0 1 0 0-4.336H21.68c-1.198 0-2.168.97-2.168 2.168a6.945 6.945 0 0 1-6.938 6.938c-1.197 0-2.168.97-2.168 2.168v42.492c0 1.197.97 2.168 2.168 2.168a6.945 6.945 0 0 1 6.938 6.937c0 1.198.97 2.168 2.168 2.168h38.495a20.386 20.386 0 0 0-.201 6.07H6.504a2.17 2.17 0 0 1-2.168-2.168V6.721a2.17 2.17 0 0 1 2.168-2.168h97.992a2.17 2.17 0 0 1 2.168 2.168v72.844z"/><path d="M80.215 68.526c-5.977 0-10.84 4.863-10.84 10.84 0 5.978 4.863 10.84 10.84 10.84 5.977 0 10.84-4.862 10.84-10.84 0-5.977-4.863-10.84-10.84-10.84zm0 17.344a6.511 6.511 0 0 1-6.504-6.504 6.511 6.511 0 0 1 6.504-6.504 6.511 6.511 0 0 1 6.504 6.504 6.511 6.511 0 0 1-6.504 6.504zM44.89 33.495c0 5.977 4.863 10.84 10.84 10.84 5.978 0 10.84-4.863 10.84-10.84 0-5.977-4.862-10.84-10.84-10.84-5.977 0-10.84 4.863-10.84 10.84zm17.344 0A6.511 6.511 0 0 1 55.73 40a6.511 6.511 0 0 1-6.503-6.504 6.511 6.511 0 0 1 6.504-6.504 6.511 6.511 0 0 1 6.503 6.504zM34.62 51.923c0 1.197.971 2.168 2.169 2.168H74.21a2.168 2.168 0 1 0 0-4.336H36.79c-1.198 0-2.168.97-2.168 2.168zm27.384 7.371H48.996a2.168 2.168 0 1 0 0 4.336h13.008a2.168 2.168 0 1 0 0-4.336zM11.041 75.027c.403.403.963.635 1.533.635s1.13-.232 1.533-.635.635-.963.635-1.533-.232-1.13-.635-1.533a2.185 2.185 0 0 0-1.533-.635c-.57 0-1.13.232-1.533.635a2.185 2.185 0 0 0-.635 1.533c0 .57.232 1.13.635 1.533zm1.533-64.404c-.57 0-1.13.232-1.533.635a2.185 2.185 0 0 0-.635 1.533c0 .57.232 1.13.635 1.533s.963.635 1.533.635 1.13-.232 1.533-.635.635-.963.635-1.533-.232-1.13-.635-1.533a2.185 2.185 0 0 0-1.533-.635zm85.852 0c-.57 0-1.13.232-1.533.635a2.185 2.185 0 0 0-.635 1.533c0 .57.232 1.13.635 1.533s.963.635 1.533.635 1.13-.232 1.533-.635.635-.963.635-1.533-.232-1.13-.635-1.533a2.185 2.185 0 0 0-1.533-.635zM55.73 14.959a2.18 2.18 0 0 0 1.532-.635c.406-.403.636-.963.636-1.533s-.23-1.13-.636-1.533a2.184 2.184 0 0 0-1.532-.635c-.57 0-1.13.232-1.533.635a2.185 2.185 0 0 0-.636 1.533c0 .57.233 1.13.636 1.533.404.403.963.635 1.532.635z"/></g><defs><clipPath id="a"><path fill="#fff" transform="translate(0 .217)" d="M0 0h111v111H0z"/></clipPath></defs></svg>