<svg width="99" height="120" viewBox="0 0 99 120" fill="none" xmlns="http://www.w3.org/2000/svg"><path d="M76.284 20.851l.17-.47a51.214 51.214 0 0 0 10.503 2.578l-.068.494.068-.494c5.777.79 9.833 6.527 9.134 12.72-.883 7.827-2.5 19.518-5.19 30.74l-.484-.116.485.116c-2.925 12.202-6.376 20.785-10.3 25.42-7.923 9.359-17.847 17.645-24.768 22.942-3.81 2.916-8.936 2.917-12.745 0-6.92-5.297-16.844-13.583-24.768-22.942-3.924-4.635-7.375-13.218-10.3-25.42-2.689-11.222-4.306-22.913-5.19-30.74-.697-6.193 3.357-11.93 9.136-12.72 15.62-2.135 25.976-10.618 31.92-17.368 1.456-1.653 3.437-2.575 5.574-2.575 2.138 0 4.119.922 5.576 2.575 4.281 4.862 9.226 8.824 14.698 11.778.529.286 1.2.073 1.492-.557.298-.648.04-1.41-.513-1.709-5.242-2.83-9.975-6.625-14.07-11.275C54.747 1.675 52.197.499 49.46.499s-5.286 1.176-7.182 3.329l-.374-.33.374.33C36.6 10.279 26.675 18.412 11.694 20.46 4.754 21.41-.267 28.348.595 35.993c.756 6.704 2.285 18.167 4.88 29.434 1.298 5.634 2.86 11.21 4.723 16.114 1.865 4.91 4.019 9.113 6.485 12.027 8.05 9.509 18.107 17.911 25.133 23.29 2.29 1.753 4.969 2.627 7.645 2.627l26.823-98.634zm0 0l.17-.47c-.575-.208-.933-.915-.718-1.608.21-.678.857-.987 1.412-.786m-.864 2.864l.864-2.864m-37.033 37.24c-.556-.49-1.8-1.255-3.226-1.405-1.379-.144-2.971.28-4.342 2.238-1.387 1.98-1.46 3.802-1.067 5.25.4 1.474 1.29 2.583 1.84 3.067l4.716 4.147c.472.415 1.162.348 1.559-.179.414-.55.33-1.362-.165-1.799l.685-11.32zm0 0l8.63 7.59.363.32.33-.354 13.25-14.189c2.115-2.263 5.523-2.246 7.617.039 2.116 2.308 2.1 6.061-.036 8.348L53.252 75.204l.365.34-.364-.34c-1.023 1.095-2.369 1.69-3.792 1.69a5.154 5.154 0 0 1-3.396-1.308l-2.701-2.376c-.496-.436-.58-1.248-.167-1.798.398-.527 1.088-.594 1.56-.179l2.699 2.373.001.001c.417.372 1.063.735 1.822.795.784.062 1.637-.204 2.41-1.01l.004-.004L68.71 55.164c1.216-1.303 1.226-3.417.02-4.731-1.225-1.337-3.245-1.35-4.483-.023L49.96 65.71c-.409.437-1.037.467-1.476.08l-9.764-8.587 1.394-1.977zm37.033-37.24A49.19 49.19 0 0 0 87.23 20.46m-10.08-2.473l10.08 2.473m0 0c6.94.95 11.96 7.888 11.099 15.533-.757 6.704-2.285 18.167-4.88 29.434-1.298 5.634-2.86 11.21-4.723 16.114-1.865 4.91-4.019 9.113-6.485 12.027-8.051 9.509-18.107 17.911-25.133 23.29-2.29 1.753-4.97 2.626-7.646 2.627L87.23 20.46zM34.714 62.4l4.715 4.146-.708-9.343c-.32-.281-1.002-.737-1.83-.836a2.51 2.51 0 0 0-1.355.205c-.466.212-.902.58-1.285 1.136-.769 1.112-.834 2.153-.597 2.995.23.817.734 1.41 1.06 1.696z" fill="#fff" stroke="#fff" stroke-width=".998"/></svg>