<svg width="97" height="97" viewBox="0 0 97 97" fill="none" xmlns="http://www.w3.org/2000/svg"><path d="M42.562 55.456H6c-1.672 0-1.672-2.528 0-2.528h33.02c1.878 0 1.88-2.84 0-2.84H8.8V8.21h77.143v41.877h-9.145c-1.878 0-1.882 2.841 0 2.841h12.46c1.671 0 1.671 2.528 0 2.528H73.51c-1.878 0-1.88 2.841 0 2.841h15.75a4.11 4.11 0 0 0 4.104-4.104 4.11 4.11 0 0 0-4.105-4.106h-.473V8.21h.473a4.11 4.11 0 0 0 4.105-4.105A4.11 4.11 0 0 0 89.258 0H6a4.11 4.11 0 0 0-4.105 4.105A4.11 4.11 0 0 0 5.959 8.21v41.877a4.11 4.11 0 0 0-4.064 4.105A4.11 4.11 0 0 0 6 58.297h36.562c1.878 0 1.881-2.841 0-2.841zM6 2.842h83.258c1.671 0 1.671 2.526 0 2.526H6c-1.673 0-1.67-2.526 0-2.526z" fill="#fff"/><path d="M26.349 13.35a2.265 2.265 0 0 0-2.263-2.263h-8.92a2.265 2.265 0 0 0-2.262 2.263v5.51a2.265 2.265 0 0 0 2.262 2.262h8.92a2.265 2.265 0 0 0 2.263-2.262v-5.51zm-2.842 4.93h-7.762v-4.352h7.762v4.353zm2.842 8.237a2.265 2.265 0 0 0-2.263-2.262h-8.92a2.265 2.265 0 0 0-2.262 2.262v5.51a2.265 2.265 0 0 0 2.262 2.263h8.92a2.265 2.265 0 0 0 2.263-2.262v-5.51zm-2.842 4.931h-7.762v-4.352h7.762v4.352zm.579 5.975h-8.92a2.265 2.265 0 0 0-2.262 2.262v5.51a2.265 2.265 0 0 0 2.262 2.263h8.92a2.265 2.265 0 0 0 2.263-2.262v-5.51a2.265 2.265 0 0 0-2.263-2.263zm-.579 7.194h-7.762v-4.353h7.762v4.353zm62.95 19.945a23.634 23.634 0 0 0-4.823-1.462l-14.397-2.8v-3.556c4.043-2.758 6.232-6.664 6.708-11.05a4.086 4.086 0 0 0 3.755-4.068v-2.92c3.421-1.487 2.959-6.48-.66-7.322v-1.128c0-10.132-8.215-18.346-18.347-18.346h-1.538c-10.133 0-18.347 8.214-18.347 18.346v1.127c-3.618.843-4.082 5.836-.66 7.323v2.92a4.085 4.085 0 0 0 3.755 4.067c.474 4.366 2.636 8.273 6.708 11.05V60.3l-14.396 2.8a23.592 23.592 0 0 0-4.824 1.462C23.55 67.076 20.7 71.09 20.7 76.758v2.919c0 1.878 2.841 1.881 2.841 0v-2.918c0-4.258 1.934-7.202 6.178-9.235.17.756 2.774 7.823 2.774 17.697v8.938H26.49a2.949 2.949 0 0 1-2.948-2.948v-5.88c0-1.88-2.841-1.882-2.841 0v5.88A5.789 5.789 0 0 0 26.49 97h62.869a5.789 5.789 0 0 0 5.79-5.79V76.76c0-5.67-2.851-9.683-8.692-12.197zm-2.977 1.906c-.198.867-2.967 8.322-2.967 18.753v8.938H59.345V87c0-2.128.647-4.173 1.872-5.914a2656.224 2656.224 0 0 0 11.632-16.8c10.2 2.054 8.97 1.629 10.631 2.182zM56.955 79.45a1105.75 1105.75 0 0 1-3.984-5.715 4.262 4.262 0 0 0 1.27-.506l3.683-2.21 3.683 2.21c.402.24.83.409 1.27.506-1.477 2.13-2.893 4.163-3.984 5.715a13.278 13.278 0 0 0-.97 1.608 13.195 13.195 0 0 0-.968-1.608zm-1.931-10.005c-2.25 1.205-2.09 1.566-3.112 1.444a2.238 2.238 0 0 1-1.57-.956 4250.24 4250.24 0 0 1-4.301-6.24l2.845-.552c.92 2.791 3.948 5.012 6.137 6.304zm14.784-5.75c-1.033 1.5-2.61 3.789-4.312 6.254-.695 1.005-1.94 1.134-2.427.842l-2.245-1.346c2.19-1.292 5.218-3.513 6.137-6.304l2.847.553zm-20.16-47.003v1.782c0 1.878 2.842 1.88 2.842 0v-3.006a15.412 15.412 0 0 1 4.014-.704v7.026c0 1.878 2.84 1.881 2.84 0v-7.026c1.393.058 2.74.301 4.014.704v3.006c0 1.878 2.842 1.88 2.842 0v-1.782c8.882 4.935 7.938 14.366 7.998 14.591H41.65c.049-.183-.838-9.681 7.998-14.591zm-9.962 17.432h36.476c1.363 0 1.36 2.058 0 2.058H39.686c-1.362 0-1.36-2.058 0-2.058zm4.969 10.13a1.42 1.42 0 0 0-1.421-1.39c-.237-.059-2.244.369-2.244-1.239v-2.6h33.87v2.6c0 1.606-2.063 1.193-2.245 1.24a1.42 1.42 0 0 0-1.421 1.39c-.077 3.551-1.585 6.85-4.142 9.05-5.426 4.673-12.83 4.673-18.256 0-2.556-2.2-4.066-5.5-4.141-9.05zm19.74 14.057v3.16c0 2.54-4.311 5.23-6.471 6.318-2.158-1.087-6.46-3.77-6.472-6.308v-3.17a16.316 16.316 0 0 0 12.944 0zm-32.027 8.156c1.66-.552.427-.127 10.63-2.181l.812 1.18c.828 1.204 1.975 2.868 3.245 4.71 2.318 3.359 5.515 7.98 7.576 10.908A10.23 10.23 0 0 1 56.504 87v7.157H35.335V85.22c0-10.698-2.702-17.586-2.967-18.752zM92.307 91.21a2.95 2.95 0 0 1-2.948 2.947h-6.004V85.22c0-9.603 2.67-17.233 2.775-17.697 4.243 2.033 6.177 4.977 6.177 9.235V91.21z" fill="#fff"/><path d="M65.67 82.182c-1.34 0-2.43 1.09-2.43 2.43v2.846c0 1.34 1.09 2.43 2.43 2.43h8.355c1.34 0 2.43-1.09 2.43-2.43v-2.847c0-1.34-1.09-2.43-2.43-2.43h-8.356zm7.943 4.864H66.08v-2.022h7.532v2.022z" fill="#fff"/></svg>