<svg width="16" height="16" viewBox="0 0 16 16" fill="none" xmlns="http://www.w3.org/2000/svg"><g clip-path="url(#a)"><path d="M11.624 6.18s.607-.46.145-.922c-.462-.461-.91.134-.91.134l-4.642 4.643s-1.088 1.403-1.914.555c-.826-.85.554-1.915.554-1.915l6.087-6.086s1.42-1.564 2.755-.23c1.334 1.335-.236 2.758-.236 2.758l-6.839 6.84s-2.188 2.527-4.213.501c-2.026-2.026.527-4.19.527-4.19L8.13 3.076s.581-.486.146-.923c-.438-.436-.922.146-.922.146L1.396 8.256s-2.25 2.467.262 4.978c2.512 2.512 4.98.263 4.98.263l8.189-8.19s1.638-1.806-.316-3.76c-1.953-1.955-3.76-.317-3.76-.317L3.705 8.275S1.9 9.743 3.537 11.38c1.638 1.638 3.079-.193 3.079-.193l5.008-5.006z" fill="#fff"/></g><defs><clipPath id="a"><path fill="#fff" transform="translate(.47 .005)" d="M0 0h15v15H0z"/></clipPath></defs></svg>