<svg xmlns="http://www.w3.org/2000/svg" width="33" height="33" viewBox="0 0 2362 2362" shape-rendering="geometricPrecision" text-rendering="geometricPrecision" image-rendering="optimizeQuality" fill-rule="evenodd" clip-rule="evenodd"><defs><style>.fil0,.fil1{fill:#fff}.fil1{fill-rule:nonzero}</style></defs><g id="Слой_x0020_1"><g id="_186467776"><path class="fil0" d="M836 1740s-142-512 391-491v306l480-472-480-472v264c-498-19-749 454-391 866z"/><path class="fil1" d="M1181 0c326 0 621 132 835 346s346 509 346 835-132 621-346 835-509 346-835 346-621-132-835-346S0 1507 0 1181s132-621 346-835S855 0 1181 0zm764 417c-196-196-466-317-764-317S612 221 417 417c-196 196-317 466-317 764s121 569 317 764c196 196 466 317 764 317s569-121 764-317c196-196 317-466 317-764s-121-569-317-764z"/></g></g></svg>