<svg id="Слой_1" xmlns="http://www.w3.org/2000/svg" width="24.966" height="24.967" viewBox="0 0 24.966 24.967"><style>.st0{fill:url(#SVGID_1_)}.st1{fill:url(#SVGID_2_)}.st2{fill:url(#SVGID_3_)}</style><linearGradient id="SVGID_1_" gradientUnits="userSpaceOnUse" y1="13.682" x2="22.569" y2="13.682"><stop offset="0" stop-color="#eec725"/><stop offset="0" stop-color="#583c79"/><stop offset="1" stop-color="#503e7f"/></linearGradient><path class="st0" d="M18.981 16.516c-.816-.805-1.834-.805-2.644 0-.618.613-1.236 1.226-1.844 1.85-.166.171-.307.208-.509.094-.4-.218-.826-.395-1.211-.634-1.792-1.127-3.294-2.577-4.624-4.208-.66-.81-1.247-1.678-1.657-2.655-.083-.197-.068-.327.094-.488.617-.599 1.22-1.212 1.828-1.825.847-.852.847-1.85-.005-2.707-.483-.488-.966-.966-1.45-1.455-.499-.498-.992-1.002-1.496-1.495-.816-.795-1.834-.795-2.645.005-.623.613-1.221 1.241-1.854 1.844C.377 5.398.08 6.079.018 6.873c-.099 1.294.218 2.515.665 3.704.914 2.463 2.307 4.65 3.995 6.655 2.281 2.712 5.003 4.858 8.188 6.406 1.434.696 2.92 1.231 4.536 1.32 1.112.062 2.078-.218 2.852-1.086.53-.592 1.127-1.133 1.688-1.699.831-.842.836-1.86.01-2.691a692.435 692.435 0 0 0-2.971-2.966z"/><linearGradient id="SVGID_2_" gradientUnits="userSpaceOnUse" x1="12.357" y1="8.681" x2="19.906" y2="8.681"><stop offset="0" stop-color="#eec725"/><stop offset="0" stop-color="#583c79"/><stop offset="1" stop-color="#503e7f"/></linearGradient><path class="st1" d="M17.989 12.375l1.917-.327a8.572 8.572 0 0 0-2.395-4.624 8.526 8.526 0 0 0-4.884-2.437l-.27 1.927A6.614 6.614 0 0 1 16.139 8.8a6.618 6.618 0 0 1 1.85 3.575z"/><linearGradient id="SVGID_3_" gradientUnits="userSpaceOnUse" x1="12.612" y1="6.021" x2="24.966" y2="6.021"><stop offset="0" stop-color="#eec725"/><stop offset="0" stop-color="#583c79"/><stop offset="1" stop-color="#503e7f"/></linearGradient><path class="st2" d="M20.987 4.042A14.14 14.14 0 0 0 12.882 0l-.27 1.927a12.261 12.261 0 0 1 7.003 3.491 12.245 12.245 0 0 1 3.434 6.624l1.917-.327a14.24 14.24 0 0 0-3.979-7.673z"/></svg>